<svg width="469" height="481" viewBox="0 0 469 481" fill="none" xmlns="http://www.w3.org/2000/svg">
<path d="M136.812 419.651C134.853 418.723 133.394 417.669 132.438 416.489C131.436 415.325 130.635 414.127 130.032 412.897C129.656 412.173 129.239 411.904 128.783 412.087C128.282 412.286 127.66 412.991 126.918 414.203L125.893 413.717C126.504 412.626 127.216 411.291 128.029 409.713C128.828 408.165 129.873 406.079 131.164 403.456L132.188 403.941C131.758 405.336 131.443 406.496 131.245 407.42C131.017 408.329 130.921 409.156 130.958 409.9C130.964 410.63 131.097 411.402 131.356 412.215C131.695 413.684 132.372 414.95 133.386 416.012C134.401 417.074 135.607 417.935 137.002 418.596C138.516 419.313 140.041 419.563 141.576 419.345C143.097 419.156 144.599 418.559 146.083 417.553C147.537 416.534 148.936 415.179 150.28 413.489C151.624 411.8 152.847 409.835 153.95 407.595C155.082 405.296 155.889 403.097 156.372 401C156.841 398.932 156.993 397.023 156.829 395.274C156.621 393.54 156.104 392.023 155.279 390.723C154.41 389.44 153.233 388.446 151.749 387.743C150.531 387.167 149.153 386.805 147.615 386.658C146.062 386.54 144.652 386.8 143.387 387.436C142.12 387.927 141.07 388.647 140.237 389.597C139.359 390.563 138.344 391.954 137.193 393.772L136.169 393.287C137.504 390.575 138.57 388.372 139.367 386.678C140.15 385.013 140.794 383.592 141.301 382.414L142.325 382.899C141.82 384.223 141.636 385.117 141.774 385.582C141.881 386.033 142.363 386.206 143.22 386.103C144.695 385.857 146.202 385.734 147.739 385.735C149.232 385.752 150.944 386.217 152.874 387.131C155.813 388.523 158.07 390.373 159.643 392.681C161.216 394.989 162.024 397.625 162.066 400.589C162.109 403.553 161.303 406.715 159.649 410.075C158.024 413.376 155.979 415.97 153.513 417.855C151.018 419.727 148.33 420.835 145.451 421.18C142.572 421.525 139.693 421.015 136.812 419.651Z" fill="#375140"/>
<path d="M116.153 396.672C114.324 395.447 112.963 393.982 112.069 392.276C111.176 390.57 110.869 388.625 111.149 386.441C111.429 384.256 112.48 381.856 114.301 379.241C116.122 376.626 118.018 374.793 119.991 373.742C121.945 372.718 123.894 372.304 125.839 372.5C127.765 372.723 129.643 373.447 131.471 374.672C133.273 375.879 134.643 377.331 135.583 379.028C136.504 380.752 136.834 382.692 136.572 384.85C136.265 387.016 135.201 389.407 133.38 392.022C131.559 394.637 129.676 396.479 127.73 397.549C125.758 398.599 123.786 399.018 121.813 398.804C119.841 398.589 117.954 397.879 116.153 396.672ZM116.716 395.863C118.135 396.814 119.858 396.782 121.886 395.768C123.894 394.781 126.156 392.481 128.671 388.868C131.187 385.255 132.548 382.352 132.755 380.158C132.943 377.991 132.327 376.432 130.908 375.481C129.516 374.548 127.825 374.562 125.836 375.523C123.8 376.492 121.525 378.782 119.009 382.395C116.494 386.008 115.146 388.921 114.966 391.133C114.741 393.354 115.324 394.931 116.716 395.863Z" fill="#375140"/>
<path d="M90.8812 376.528C89.9006 375.653 89.2267 374.81 88.8595 373.998C88.4455 373.189 88.2311 372.381 88.2164 371.576C88.1996 370.725 88.4404 369.861 88.9389 368.985C89.4129 368.087 90.2195 367.024 91.3587 365.796L100.338 356.111C101.276 355.1 101.717 354.238 101.66 353.527C101.578 352.794 101.059 352.001 100.103 351.148L100.807 350.389C101.201 350.785 101.828 351.388 102.689 352.2C103.527 353.035 104.375 353.836 105.233 354.601C106.066 355.345 106.922 356.064 107.8 356.76C108.632 357.457 109.267 357.98 109.706 358.328L109.002 359.086C108.169 358.343 107.413 357.999 106.735 358.054C106.056 358.109 105.248 358.642 104.31 359.654L94.3921 370.35C93.7443 371.049 93.2248 371.73 92.8336 372.394C92.4201 373.081 92.2531 373.768 92.3326 374.456C92.3898 375.167 92.8107 375.872 93.5951 376.572C94.5022 377.381 95.5458 377.85 96.7258 377.979C97.8813 378.085 99.0807 377.878 100.324 377.359C101.52 376.842 102.621 376.041 103.626 374.957L111.701 366.248C112.639 365.236 113.104 364.397 113.096 363.729C113.064 363.04 112.643 362.334 111.834 361.612L112.537 360.854C112.907 361.228 113.486 361.787 114.272 362.533C115.012 363.281 115.811 364.038 116.669 364.803C117.503 365.547 118.395 366.299 119.347 367.06C120.276 367.845 120.973 368.423 121.437 368.792L120.733 369.551C119.777 368.698 118.935 368.278 118.208 368.289C117.456 368.279 116.611 368.779 115.673 369.791L105.152 381.138C104.147 382.222 103.593 383.181 103.492 384.015C103.368 384.873 103.821 385.761 104.851 386.68L104.147 387.438C103.43 386.666 102.703 385.952 101.968 385.296C101.134 384.552 100.329 383.9 99.5508 383.338C98.7259 382.778 97.9289 382.309 97.1597 381.931L100.812 377.992C98.7895 378.917 96.9475 379.189 95.2859 378.807C93.5997 378.403 92.1315 377.644 90.8812 376.528Z" fill="#375140"/>
<path d="M70.9147 366.436L77.1363 361.125L72.6227 356.038L73.3723 355.398L77.8859 360.485L92.6153 347.911C93.6397 347.036 94.2008 346.233 94.2985 345.502C94.3962 344.771 94.1397 344.061 93.5292 343.373C92.9623 342.734 92.1984 342.393 91.2376 342.35C90.255 342.281 88.9755 342.596 87.3991 343.294L87.04 342.37C88.626 341.534 90.2192 341.103 91.8196 341.075C93.3732 341.045 94.7933 341.754 96.0798 343.204C96.8211 344.04 97.3301 344.836 97.6068 345.593C97.9084 346.329 98.0447 347.076 98.0156 347.835C97.9206 348.867 97.5605 349.822 96.9354 350.701C96.3103 351.58 95.3356 352.585 94.0113 353.715L81.4183 364.466L84.4273 367.857L83.6777 368.497L80.6687 365.106L75.1967 369.777C74.4958 369.037 73.801 368.378 73.1123 367.8C72.3986 367.243 71.6661 366.788 70.9147 366.436Z" fill="#375140"/>
<path d="M87.9101 333.56C88.7111 334.684 89.1809 335.796 89.3195 336.896C89.4581 337.995 89.2911 339.006 88.8186 339.928C88.346 340.849 87.6221 341.644 86.6468 342.313C85.4547 343.131 84.3022 343.523 83.1893 343.49C82.0493 343.475 80.9534 343.211 79.9016 342.698C78.8308 342.157 77.8126 341.521 76.8472 340.79C75.8355 340.05 74.8986 339.358 74.0365 338.714C73.1282 338.063 72.2938 337.599 71.5331 337.324C70.7533 337.023 70.0518 337.086 69.4287 337.513L66.6652 339.408C65.6899 340.077 65.0321 340.768 64.692 341.479C64.3058 342.182 64.1814 342.884 64.319 343.587C64.4375 344.262 64.7542 344.961 65.2691 345.683C65.7077 346.299 66.2698 346.889 66.9552 347.455C67.6136 348.039 68.3432 348.355 69.144 348.403C68.887 347.703 68.8689 346.998 69.0896 346.289C69.2641 345.572 69.7036 344.972 70.408 344.489C71.1666 343.969 71.9438 343.814 72.7396 344.025C73.5164 344.209 74.1717 344.676 74.7057 345.425C75.2969 346.254 75.4781 347.046 75.2494 347.8C74.9936 348.573 74.5135 349.201 73.8091 349.684C73.0776 350.186 72.3576 350.421 71.6491 350.389C70.9215 350.33 70.1448 350.146 69.3188 349.836C68.4277 349.492 67.4803 348.927 66.4766 348.141C65.4539 347.329 64.504 346.308 63.6267 345.077C62.8067 343.927 62.2366 342.844 61.9163 341.829C61.5499 340.806 61.4509 339.818 61.6194 338.866C61.7658 337.77 62.2368 336.79 63.0325 335.925C63.8011 335.08 64.8492 334.201 66.1767 333.291L77.3932 325.598C78.0705 325.133 78.501 324.719 78.6846 324.354C78.822 323.981 78.7477 323.594 78.4616 323.192C78.2709 322.925 78.022 322.717 77.7149 322.569C77.3888 322.395 76.9663 322.226 76.4474 322.064L76.8522 321.189C77.7133 321.435 78.4891 321.76 79.1795 322.162C79.8509 322.538 80.5013 323.168 81.1306 324.05C81.7409 324.906 82.1012 325.695 82.2117 326.416C82.3222 327.137 82.2154 327.807 81.8913 328.428C81.5482 329.022 80.9973 329.579 80.2387 330.099C81.8725 330.014 83.3306 330.249 84.6132 330.803C85.8958 331.357 86.9947 332.276 87.9101 333.56ZM84.5864 332.972C84.0524 332.223 83.3398 331.676 82.4487 331.332C81.5384 330.96 80.4496 330.791 79.1821 330.824L71.0949 336.37C71.7382 336.367 72.4226 336.535 73.1482 336.874C73.8467 337.231 74.5873 337.62 75.3701 338.039C76.1529 338.458 76.9708 338.813 77.8239 339.104C78.6307 339.387 79.4928 339.493 80.41 339.421C81.3272 339.35 82.287 338.97 83.2895 338.283C84.3461 337.558 84.9953 336.715 85.237 335.752C85.4516 334.808 85.2348 333.882 84.5864 332.972Z" fill="#375140"/>
<path d="M49.8616 322.544C49.3286 321.562 48.9501 320.555 48.7262 319.523C48.4732 318.507 48.3848 317.552 48.461 316.66C48.5215 315.739 48.7634 314.945 49.1868 314.28C49.5945 313.585 50.1623 313.047 50.8903 312.667C51.7638 312.211 52.5814 312.098 53.3429 312.331C54.1044 312.563 54.6968 313.069 55.1201 313.848C55.5434 314.628 55.6778 315.391 55.5232 316.139C55.3686 316.887 54.8836 317.474 54.0683 317.9C53.3112 318.296 52.5821 318.398 51.8811 318.209C51.1509 318.034 50.5563 317.696 50.0971 317.195C49.8014 317.683 49.6883 318.335 49.7577 319.151C49.7823 319.954 49.9984 320.73 50.406 321.481C50.8293 322.261 51.4407 322.905 52.2403 323.414C53.0242 323.893 53.9873 324.187 55.1296 324.295C56.2719 324.402 57.6069 324.279 59.1344 323.926C60.6463 323.543 62.3486 322.858 64.2414 321.869C66.6873 320.591 68.4893 319.298 69.6474 317.989C70.7607 316.666 71.3722 315.383 71.482 314.139C71.5919 312.896 71.3567 311.74 70.7767 310.672C70.4004 309.979 69.8853 309.34 69.2313 308.755C68.5617 308.142 67.7408 307.663 66.7687 307.318C65.781 306.945 64.6219 306.772 63.2914 306.8L63.1504 305.817C64.2837 305.633 65.5336 305.628 66.8998 305.804C68.2504 305.951 69.5439 306.406 70.7803 307.168C72.0166 307.93 73.0659 309.106 73.9281 310.693C74.9158 312.512 75.358 314.394 75.2549 316.338C75.1518 318.282 74.4763 320.136 73.2287 321.899C71.9519 323.678 70.0614 325.222 67.5571 326.53C65.1112 327.808 62.7504 328.485 60.4747 328.562C58.1542 328.626 56.0757 328.136 54.2391 327.095C52.4025 326.053 50.9434 324.536 49.8616 322.544Z" fill="#375140"/>
<path d="M34.5381 307.022L42.1384 303.996L39.5383 297.712L40.454 297.348L43.0541 303.632L61.0475 296.469C62.2989 295.971 63.0899 295.391 63.4204 294.729C63.7509 294.067 63.7403 293.311 63.3886 292.461C63.062 291.671 62.4526 291.101 61.5604 290.749C60.6556 290.367 59.346 290.252 57.6314 290.404L57.5939 289.411C59.3624 289.131 61.006 289.237 62.5247 289.729C64.0004 290.202 65.1087 291.334 65.8498 293.125C66.2769 294.157 66.4975 295.077 66.5117 295.885C66.5564 296.68 66.4413 297.433 66.1665 298.143C65.7408 299.091 65.0898 299.88 64.2136 300.512C63.3373 301.144 62.0903 301.781 60.4726 302.425L45.0889 308.55L46.8223 312.739L45.9066 313.103L44.1732 308.914L37.4886 311.575C37.0687 310.646 36.6282 309.796 36.1669 309.025C35.6752 308.266 35.1322 307.599 34.5381 307.022Z" fill="#375140"/>
<path d="M34.404 283.494C33.5919 280.719 33.7932 278.307 35.0078 276.259C36.2224 274.21 38.648 272.674 42.2846 271.65L47.0603 287.967L46.1867 288.315L42.8507 276.917C41.2919 277.322 39.9058 277.849 38.6923 278.498C37.4472 279.155 36.517 279.895 35.9018 280.717C35.2866 281.539 35.122 282.438 35.4081 283.416C35.8049 284.771 36.8783 285.749 38.6282 286.348C40.3373 286.925 42.8053 286.878 46.0322 286.209L46.2279 286C46.6798 285.907 47.1792 285.8 47.726 285.681C48.2412 285.57 48.7518 285.443 49.2578 285.3C51.4398 284.686 53.177 283.838 54.4695 282.758C55.762 281.677 56.6308 280.494 57.076 279.208C57.4896 277.931 57.5349 276.741 57.2119 275.638C56.9627 274.786 56.5963 274.002 56.1126 273.285C55.588 272.546 54.9034 271.902 54.0587 271.355C53.1824 270.817 52.0919 270.424 50.7874 270.177L50.89 269.125C52.076 269.2 53.306 269.485 54.5803 269.98C55.8546 270.474 57.0037 271.242 58.0277 272.285C59.0201 273.337 59.7562 274.682 60.236 276.322C60.882 278.529 60.9548 280.59 60.4543 282.506C59.9223 284.43 58.8526 286.097 57.2452 287.505C55.6378 288.913 53.5534 289.978 50.992 290.699C48.1775 291.492 45.6404 291.711 43.3805 291.358C41.1206 291.005 39.229 290.155 37.7055 288.809C36.1413 287.441 35.0407 285.669 34.404 283.494Z" fill="#375140"/>
<path d="M28.3262 250.942L55.161 260.469L54.4419 256.093C54.2288 254.796 53.7801 253.686 53.0957 252.763C52.4114 251.841 51.4156 251.15 50.1084 250.691C48.8013 250.233 47.1473 250.095 45.1465 250.278L44.9628 249.16C47.1369 248.816 48.9514 248.513 50.4063 248.249C51.8612 247.986 53.0539 247.748 53.9843 247.534C54.1591 249.003 54.3581 250.518 54.5814 252.08C54.8047 253.641 55.0415 255.183 55.2919 256.707C55.5635 258.36 55.8568 260.043 56.1716 261.756C56.5135 263.432 56.8447 265.042 57.1654 266.588L30.3305 257.061L31.0657 261.535C31.2947 262.929 31.7677 264.085 32.4845 265.002C33.1688 265.925 34.1592 266.584 35.4558 266.977C36.7145 267.344 38.3469 267.451 40.353 267.301L40.5288 268.37C38.3222 268.719 36.5077 269.023 35.0852 269.281C33.6628 269.539 32.4701 269.777 31.5073 269.996C31.3378 268.56 31.1414 267.061 30.9181 265.499C30.6949 263.938 30.4554 262.38 30.1997 260.824C29.9333 259.203 29.6454 257.552 29.336 255.871C28.9887 254.163 28.6521 252.52 28.3262 250.942Z" fill="#375140"/>
<path d="M38.0346 227.525L41.3336 227.391L42.0791 245.166L38.7801 245.299L38.0346 227.525Z" fill="#375140"/>
<path d="M28.5288 205.886C28.651 204.578 28.9302 203.531 29.3665 202.745C29.7732 201.924 30.2969 201.262 30.9379 200.759C31.6145 200.226 32.4544 199.889 33.4574 199.748C34.4635 199.575 35.8009 199.563 37.4697 199.713L50.6235 200.895C51.9978 201.019 52.9548 200.841 53.4945 200.361C54.0372 199.849 54.3682 198.956 54.4873 197.68L55.518 197.772C55.4334 198.326 55.3197 199.19 55.177 200.364C55.0016 201.536 54.8604 202.694 54.7535 203.839C54.6496 204.951 54.5784 206.066 54.54 207.184C54.4719 208.267 54.4282 209.087 54.409 209.646L53.3783 209.554C53.4822 208.442 53.3101 207.634 52.8621 207.132C52.414 206.63 51.5029 206.318 50.1286 206.194L35.6005 204.889C34.6516 204.803 33.7932 204.809 33.0253 204.905C32.2247 204.998 31.571 205.285 31.064 205.767C30.5243 206.247 30.2056 207.01 30.1078 208.056C29.9948 209.267 30.2375 210.377 30.8361 211.387C31.4377 212.365 32.3178 213.186 33.4766 213.851C34.6056 214.48 35.9064 214.861 37.3788 214.993L49.2075 216.056C50.5818 216.18 51.5357 216.035 52.0693 215.621C52.6059 215.174 52.9246 214.411 53.0255 213.332L54.0562 213.424C53.9746 213.945 53.867 214.743 53.7335 215.82C53.5703 216.861 53.4352 217.954 53.3283 219.098C53.2244 220.211 53.1487 221.375 53.1011 222.591C53.0207 223.804 52.9694 224.707 52.9472 225.298L51.9165 225.206C52.0356 223.93 51.8742 223.008 51.4323 222.441C50.9934 221.841 50.0868 221.479 48.7125 221.355L33.301 219.971C31.8285 219.838 30.7258 219.987 29.9929 220.415C29.2272 220.841 28.7802 221.741 28.6519 223.115L27.6211 223.023C27.8171 221.985 27.9609 220.975 28.0525 219.994C28.1564 218.882 28.2035 217.847 28.194 216.889C28.1547 215.896 28.0588 214.981 27.9061 214.142L33.256 214.623C31.3067 213.59 29.9918 212.301 29.3113 210.756C28.6338 209.177 28.3729 207.554 28.5288 205.886Z" fill="#375140"/>
<path d="M33.0641 181.928C33.5756 179.787 34.4781 177.989 35.7716 176.533C37.065 175.078 38.7906 174.076 40.9484 173.527C43.1061 172.978 45.7378 173.06 48.8436 173.774C51.9493 174.488 54.3444 175.561 56.0288 176.993C57.6812 178.418 58.7571 180.064 59.2567 181.932C59.7242 183.792 59.7022 185.792 59.1907 187.933C58.6869 190.042 57.8004 191.844 56.5313 193.339C55.2302 194.826 53.5168 195.848 51.3911 196.405C49.241 196.922 46.6131 196.823 43.5074 196.109C40.4016 195.396 38.0027 194.339 36.3107 192.938C34.6263 191.506 33.5381 189.84 33.0462 187.941C32.5543 186.041 32.5603 184.037 33.0641 181.928ZM34.0247 182.149C33.6277 183.81 34.2638 185.389 35.9329 186.885C37.5701 188.374 40.5338 189.611 44.8242 190.597C49.1146 191.584 52.3303 191.767 54.4713 191.146C56.5803 190.519 57.8332 189.374 58.2302 187.713C58.6195 186.083 58.0116 184.527 56.4065 183.046C54.777 181.525 51.8171 180.272 47.5267 179.286C43.2363 178.3 40.0168 178.133 37.8682 178.785C35.6952 179.398 34.414 180.519 34.0247 182.149Z" fill="#375140"/>
<path d="M45.5449 146.075L64.8582 153.378C66.241 153.9 67.3606 154.06 68.2169 153.857C69.0545 153.612 69.7196 152.863 70.2123 151.609L71.1803 151.975C70.7156 152.888 70.297 153.819 69.9244 154.767C69.5278 155.776 69.1954 156.756 68.9271 157.708C68.6587 158.66 68.4973 159.565 68.4427 160.422L63.4184 158.523C64.9617 159.984 65.8625 161.554 66.1207 163.232C66.3601 164.868 66.1854 166.435 65.5966 167.933C65.1519 169.064 64.6044 169.964 63.9539 170.631C63.3342 171.31 62.661 171.81 61.9343 172.132C61.1034 172.45 60.1696 172.536 59.1328 172.39C58.0654 172.232 56.7941 171.875 55.3191 171.317L43.7035 166.924C42.3207 166.402 41.2165 166.247 40.3909 166.462C39.5346 166.665 38.8541 167.409 38.3493 168.693L37.3814 168.327C37.8581 167.383 38.2768 166.453 38.6373 165.536C39.0338 164.527 39.3663 163.546 39.6346 162.594C39.8722 161.63 40.0337 160.725 40.119 159.88L58.5566 166.851C59.4477 167.188 60.2861 167.435 61.0717 167.592C61.8572 167.748 62.5552 167.679 63.1657 167.383C63.7762 167.087 64.2797 166.434 64.6763 165.425C65.0969 164.355 65.1468 163.285 64.8259 162.216C64.5171 161.116 63.9057 160.112 62.9917 159.204C62.0778 158.297 60.9294 157.581 59.5465 157.059L49.1293 153.119C47.7465 152.596 46.6423 152.442 45.8167 152.657C44.9604 152.86 44.2799 153.604 43.7752 154.888L42.8072 154.522C43.284 153.578 43.7026 152.648 44.0631 151.73C44.4597 150.721 44.7921 149.741 45.0605 148.789C45.2981 147.825 45.4596 146.92 45.5449 146.075Z" fill="#375140"/>
<path d="M52.4754 133.002C53.1092 131.851 53.8445 130.958 54.6814 130.323C55.5051 129.644 56.1651 129.194 56.6614 128.974C57.9391 128.424 57.7703 127.573 56.1552 126.42L56.678 125.47C57.4592 125.958 58.4226 126.524 59.568 127.168C60.6844 127.797 62.1861 128.611 64.0732 129.61L63.5503 130.56C62.3811 130.164 61.1696 129.912 59.9158 129.806C58.6779 129.67 57.5032 129.829 56.3919 130.281C55.2963 130.704 54.4 131.549 53.7029 132.816C53.18 133.765 53.0201 134.703 53.2231 135.628C53.3972 136.538 54.0067 137.27 55.0519 137.823C55.9228 138.285 56.8203 138.426 57.7442 138.246C58.668 138.066 59.6276 137.719 60.6229 137.206C61.6339 136.663 62.7203 136.086 63.8818 135.475C65.1938 134.794 66.4425 134.229 67.6278 133.779C68.7999 133.285 69.956 133.023 71.0964 132.995C72.2525 132.939 73.4112 133.218 74.5725 133.833C75.908 134.54 76.8422 135.5 77.3751 136.711C77.9238 137.894 78.1281 139.192 77.9879 140.604C77.8186 142.002 77.3538 143.391 76.5932 144.772C76.213 145.463 75.7839 146.072 75.306 146.6C74.8572 147.143 74.3885 147.619 73.9001 148.03C73.5517 148.254 73.2032 148.478 72.8547 148.703C72.493 148.883 72.1459 149.071 71.8133 149.266C71.4516 149.446 71.338 149.721 71.4726 150.089C71.6071 150.458 71.9766 150.877 72.5809 151.345L72.0581 152.295C71.1607 151.746 70.0522 151.103 68.7326 150.367C67.413 149.63 65.65 148.678 63.4435 147.509L63.9664 146.56C65.6741 147.204 67.2485 147.648 68.6896 147.89C70.1308 148.133 71.4136 148.051 72.5382 147.643C73.6496 147.191 74.5855 146.274 75.346 144.892C75.6471 144.346 75.832 143.737 75.9007 143.067C75.9405 142.382 75.7796 141.721 75.4182 141.083C75.0725 140.417 74.4352 139.838 73.5062 139.346C72.2288 138.669 70.938 138.562 69.634 139.023C68.3167 139.441 66.8133 140.094 65.1238 140.984C63.8883 141.593 62.6912 142.167 61.5323 142.706C60.3602 143.2 59.2027 143.497 58.0597 143.598C56.8877 143.684 55.7065 143.411 54.5162 142.781C53.2098 142.089 52.302 141.218 51.7928 140.167C51.2994 139.088 51.1347 137.923 51.2987 136.672C51.4336 135.405 51.8258 134.182 52.4754 133.002Z" fill="#375140"/>
<path d="M80.8898 80.3176C82.4071 78.7685 83.8875 77.7265 85.3312 77.1913C86.774 76.6102 88.1855 76.2253 89.5658 76.0366C90.3842 75.9051 90.7768 75.5981 90.7437 75.1156C90.7096 74.5871 90.2245 73.7914 89.2884 72.7287L90.0815 71.919C90.9441 72.8221 92.0094 73.8937 93.2775 75.1339C94.5218 76.3515 96.2078 77.9629 98.3358 79.9682L97.5427 80.7779C96.3298 79.9508 95.3081 79.304 94.4777 78.8374C93.6703 78.3474 92.9011 78.0061 92.17 77.8137C91.462 77.5978 90.6739 77.487 89.8058 77.4814C88.2784 77.3509 86.8407 77.5983 85.4926 78.2235C84.1446 78.8488 82.9303 79.713 81.8499 80.8161C80.6775 82.013 79.9538 83.3621 79.6789 84.8632C79.3801 86.3419 79.4823 87.9275 79.9853 89.6201C80.5114 91.2893 81.3786 93.0092 82.587 94.7797C83.7953 96.5503 85.3081 98.2918 87.1252 100.004C88.9901 101.762 90.8601 103.185 92.7352 104.275C94.5863 105.343 96.3836 106.066 98.1271 106.445C99.8697 106.778 101.5 106.757 103.017 106.382C104.533 105.96 105.866 105.163 107.016 103.989C107.958 103.027 108.744 101.849 109.373 100.456C109.978 99.0402 110.173 97.6442 109.957 96.268C109.884 94.9349 109.52 93.7342 108.865 92.6658C108.209 91.5515 107.185 90.1799 105.791 88.5511L106.585 87.7414C108.784 89.8142 110.577 91.481 111.963 92.7418C113.325 93.9801 114.495 95.0151 115.473 95.8469L114.68 96.6566C113.56 95.7816 112.754 95.3376 112.261 95.3245C111.791 95.2878 111.47 95.6854 111.299 96.5172C111.071 97.9714 110.712 99.4167 110.225 100.853C109.737 102.243 108.746 103.701 107.251 105.227C104.976 107.55 102.473 109.096 99.7438 109.864C97.0146 110.632 94.2104 110.585 91.3312 109.722C88.452 108.859 85.6496 107.144 82.9239 104.575C80.246 102.052 78.3856 99.3508 77.3428 96.4724C76.3228 93.5706 76.1016 90.7218 76.679 87.9261C77.2564 85.1303 78.66 82.5942 80.8898 80.3176Z" fill="#375140"/>
<path d="M109.566 68.3174C111.322 66.9912 113.166 66.1752 115.098 65.8695C117.029 65.5638 119.009 65.8795 121.039 66.8165C123.069 67.7536 125.067 69.4756 127.035 71.9826C129.002 74.4896 130.188 76.8252 130.592 78.9896C130.975 81.1281 130.77 83.0739 129.974 84.8269C129.158 86.5541 127.872 88.0808 126.115 89.4071C124.385 90.7136 122.551 91.5425 120.614 91.8938C118.656 92.2193 116.673 91.9264 114.663 91.0152C112.66 90.0584 110.675 88.3265 108.707 85.8195C106.74 83.3125 105.541 80.9867 105.111 78.8422C104.707 76.6778 104.916 74.7092 105.737 72.9364C106.559 71.1636 107.835 69.6239 109.566 68.3174ZM110.174 69.0928C108.811 70.1222 108.305 71.7388 108.656 73.9428C108.988 76.1209 110.512 78.9415 113.23 82.4048C115.948 85.8681 118.338 88.0355 120.399 88.9071C122.441 89.7529 124.143 89.6611 125.507 88.6317C126.844 87.6222 127.357 86.0413 127.046 83.889C126.741 81.6911 125.229 78.8605 122.512 75.3973C119.794 71.934 117.391 69.7765 115.303 68.9247C113.221 68.0272 111.511 68.0832 110.174 69.0928Z" fill="#375140"/>
<path d="M136.928 51.1665C138.076 50.5262 139.099 50.1623 139.997 50.0748C140.908 49.9428 141.756 49.9965 142.54 50.236C143.369 50.4878 144.132 50.984 144.827 51.7246C145.551 52.4491 146.333 53.5361 147.174 54.9855L153.799 66.4103C154.491 67.604 155.191 68.2859 155.897 68.4561C156.632 68.6102 157.559 68.3752 158.678 67.7509L159.197 68.6462C158.692 68.8899 157.916 69.2856 156.866 69.8334C155.801 70.3528 154.766 70.8927 153.762 71.4529C152.786 71.9971 151.827 72.5698 150.885 73.1708C149.954 73.7275 149.254 74.1561 148.782 74.4566L148.263 73.5614C149.239 73.0171 149.804 72.4198 149.958 71.7694C150.112 71.119 149.844 70.197 149.151 69.0034L141.834 56.385C141.356 55.5608 140.856 54.8619 140.333 54.2883C139.794 53.6862 139.18 53.3143 138.49 53.1725C137.784 53.0023 136.972 53.1734 136.054 53.6856C134.992 54.2778 134.218 55.1044 133.733 56.1654C133.275 57.2105 133.108 58.3948 133.23 59.7184C133.364 60.9977 133.802 62.2767 134.544 63.5556L140.501 73.8294C141.194 75.023 141.864 75.721 142.513 75.9232C143.191 76.1094 144.003 75.9384 144.95 75.4101L145.469 76.3054C144.993 76.533 144.274 76.8968 143.311 77.3966C142.36 77.852 141.382 78.3598 140.378 78.92C139.402 79.4642 138.4 80.0609 137.372 80.71C136.327 81.3306 135.554 81.7992 135.054 82.1158L134.535 81.2205C135.654 80.5963 136.319 79.943 136.531 79.2605C136.772 78.5621 136.546 77.6161 135.854 76.4225L128.091 63.0367C127.35 61.7578 126.591 60.94 125.814 60.5833C125.021 60.1981 124.022 60.3417 122.817 61.014L122.298 60.1188C123.266 59.6918 124.18 59.2382 125.041 58.758C126.016 58.2138 126.895 57.667 127.678 57.1175C128.472 56.5236 129.171 55.9272 129.772 55.328L132.467 59.9747C132.191 57.7965 132.493 55.992 133.372 54.5612C134.279 53.1144 135.465 51.9828 136.928 51.1665Z" fill="#375140"/>
<path d="M152.904 35.7264L156.146 43.2366L162.427 40.6279L162.817 41.5327L156.537 44.1415L164.214 61.9218C164.748 63.1584 165.353 63.9386 166.029 64.2623C166.706 64.586 167.469 64.5714 168.318 64.2185C169.107 63.8909 169.668 63.2843 170.002 62.3989C170.365 61.5008 170.449 60.2032 170.253 58.5061L171.254 58.4636C171.58 60.2134 171.514 61.8416 171.056 63.3483C170.614 64.8122 169.498 65.9159 167.708 66.6595C166.677 67.088 165.754 67.3114 164.939 67.3298C164.137 67.3784 163.374 67.2685 162.649 67.0002C161.682 66.5837 160.869 65.9433 160.21 65.079C159.55 64.2146 158.876 62.9832 158.185 61.3846L151.622 46.1831L147.435 47.9223L147.045 47.0175L151.231 45.2783L148.379 38.6729C149.307 38.252 150.154 37.8112 150.921 37.3502C151.675 36.8592 152.336 36.3179 152.904 35.7264Z" fill="#375140"/>
<path d="M179.591 62.2074C178.268 62.601 177.057 62.6873 175.957 62.4663C174.857 62.2453 173.935 61.7657 173.191 61.0275C172.447 60.2893 171.9 59.3553 171.55 58.2254C171.123 56.8445 171.093 55.6366 171.461 54.6017C171.819 53.5355 172.403 52.5904 173.214 51.7663C174.057 50.9328 174.976 50.1795 175.971 49.5062C176.988 48.7922 177.936 48.133 178.815 47.5286C179.716 46.8835 180.413 46.2475 180.907 45.6206C181.432 44.9844 181.583 44.3054 181.36 43.5835L180.37 40.3822C180.02 39.2524 179.555 38.4141 178.973 37.8675C178.413 37.2801 177.774 36.9389 177.057 36.8439C176.371 36.7395 175.604 36.8138 174.753 37.0669C174.029 37.2824 173.292 37.6219 172.541 38.0852C171.781 38.5172 171.256 39.1017 170.969 39.8386C171.72 39.8207 172.403 40.0286 173.018 40.4624C173.656 40.8553 174.101 41.4598 174.353 42.2758C174.625 43.1546 174.54 43.9341 174.097 44.6144C173.685 45.2852 173.039 45.7519 172.157 46.0143C171.181 46.3048 170.364 46.2222 169.708 45.7665C169.041 45.2793 168.582 44.6278 168.329 43.8118C168.067 42.9644 168.058 42.213 168.302 41.5576C168.578 40.8928 168.99 40.222 169.537 39.545C170.137 38.8179 170.966 38.1084 172.025 37.4163C173.114 36.715 174.383 36.1487 175.832 35.7176C177.186 35.3146 178.399 35.1248 179.473 35.1481C180.568 35.1307 181.548 35.3531 182.413 35.8154C183.423 36.3029 184.224 37.0585 184.816 38.082C185.398 39.0741 185.927 40.3391 186.403 41.877L190.423 54.8704C190.665 55.6551 190.935 56.1919 191.23 56.4809C191.548 56.7291 191.943 56.783 192.415 56.6424C192.73 56.5487 193.005 56.3812 193.24 56.1399C193.506 55.8893 193.795 55.5461 194.107 55.1104L194.827 55.7701C194.331 56.5005 193.785 57.1257 193.19 57.6457C192.626 58.1564 191.824 58.5664 190.785 58.8757C189.777 59.1756 188.91 59.2623 188.183 59.1359C187.456 59.0095 186.843 58.695 186.344 58.1924C185.876 57.6804 185.506 56.985 185.234 56.1062C184.823 57.6681 184.158 58.963 183.238 59.9908C182.318 61.0187 181.102 61.7576 179.591 62.2074ZM181.159 59.2729C182.041 59.0105 182.782 58.5157 183.382 57.7886C184.014 57.0522 184.505 56.0834 184.856 54.8822L181.957 45.5137C181.766 46.119 181.398 46.7083 180.854 47.2818C180.299 47.8238 179.702 48.3956 179.063 48.9972C178.424 49.5987 177.836 50.2537 177.298 50.962C176.783 51.6296 176.421 52.4056 176.213 53.2901C176.005 54.1745 176.081 55.1974 176.44 56.3586C176.819 57.5827 177.435 58.4619 178.288 58.9963C179.131 59.4993 180.088 59.5915 181.159 59.2729Z" fill="#375140"/>
<path d="M201.859 29.961C202.96 29.7715 204.038 29.7358 205.094 29.854C206.144 29.9398 207.084 30.1612 207.916 30.518C208.78 30.8693 209.467 31.351 209.977 31.9632C210.519 32.5699 210.863 33.2774 211.007 34.0859C211.181 35.0561 211.042 35.8634 210.59 36.508C210.138 37.1525 209.475 37.5501 208.601 37.7006C207.727 37.8511 206.955 37.7341 206.285 37.3493C205.615 36.9646 205.2 36.3195 205.038 35.414C204.887 34.5732 205.008 33.8523 205.401 33.2512C205.789 32.6178 206.291 32.1645 206.91 31.8913C206.532 31.4564 205.941 31.1414 205.139 30.9462C204.363 30.7132 203.554 30.6691 202.712 30.8141C201.838 30.9646 201.037 31.336 200.308 31.9281C199.613 32.5147 199.041 33.3298 198.594 34.3736C198.146 35.4174 197.862 36.7165 197.739 38.271C197.649 39.8199 197.793 41.6454 198.169 43.7474C198.655 46.4639 199.351 48.5776 200.255 50.0886C201.186 51.5617 202.231 52.5486 203.388 53.0493C204.546 53.55 205.724 53.6972 206.922 53.4909C207.699 53.357 208.466 53.0749 209.223 52.6445C210.013 52.2085 210.719 51.5868 211.342 50.7794C211.998 49.9665 212.513 48.9277 212.887 47.6632L213.871 47.8438C213.705 48.9724 213.333 50.1533 212.753 51.3866C212.205 52.6144 211.379 53.6899 210.276 54.6132C209.173 55.5366 207.732 56.1516 205.951 56.4582C203.911 56.8095 201.976 56.6261 200.145 55.9079C198.315 55.1898 196.743 53.9603 195.43 52.2196C194.112 50.4466 193.203 48.1695 192.706 45.3883C192.219 42.6719 192.282 40.2275 192.895 38.0552C193.534 35.845 194.629 34.0396 196.181 32.639C197.732 31.2384 199.625 30.3457 201.859 29.961Z" fill="#375140"/>
<path d="M221.646 20.4044L222.229 28.564L229.013 28.0978L229.084 29.0809L222.299 29.5471L223.679 48.8646C223.775 50.2081 224.089 51.1416 224.62 51.6649C225.151 52.1882 225.876 52.4183 226.794 52.3552C227.646 52.2966 228.375 51.9008 228.981 51.1676C229.621 50.4321 230.127 49.2283 230.502 47.556L231.461 47.8359C231.191 49.5997 230.592 51.1227 229.663 52.405C228.764 53.6523 227.347 54.3424 225.414 54.4753C224.299 54.5518 223.355 54.4686 222.58 54.2254C221.807 54.0151 221.124 53.6669 220.529 53.1809C219.754 52.4767 219.198 51.6094 218.861 50.5788C218.524 49.5482 218.293 48.1645 218.169 46.4277L216.989 29.912L212.466 30.2228L212.396 29.2397L216.919 28.9289L216.407 21.7524C217.42 21.6498 218.365 21.5026 219.241 21.3107C220.114 21.086 220.916 20.7839 221.646 20.4044Z" fill="#375140"/>
<path d="M244.372 27.7193C247.262 27.8214 249.495 28.7715 251.073 30.5696C252.65 32.3677 253.37 35.1545 253.231 38.93L236.24 38.3292L236.176 37.3901L248.045 37.8097C248.137 36.2022 248.06 34.7202 247.814 33.3637C247.569 31.9743 247.15 30.8583 246.556 30.0154C245.963 29.1726 245.157 28.7332 244.139 28.6972C242.727 28.6473 241.469 29.3589 240.362 30.8319C239.29 32.2733 238.579 34.6315 238.229 37.9064L238.367 38.1579C238.317 38.6164 238.266 39.1241 238.213 39.681C238.16 40.2052 238.125 40.7299 238.105 41.2552C238.022 43.5205 238.297 45.4368 238.93 47.0043C239.562 48.5717 240.423 49.7691 241.51 50.5965C242.598 51.3911 243.717 51.8087 244.866 51.8493C245.753 51.8807 246.611 51.7795 247.442 51.5459C248.306 51.2806 249.128 50.833 249.907 50.2031C250.688 49.5403 251.395 48.6285 252.03 47.4675L253 47.8962C252.565 48.9986 251.917 50.0769 251.057 51.1313C250.196 52.1857 249.113 53.035 247.807 53.6791C246.503 54.2905 244.997 54.566 243.289 54.5056C240.991 54.4243 239.007 53.8446 237.337 52.7665C235.669 51.6556 234.41 50.1154 233.562 48.1458C232.714 46.1763 232.339 43.8619 232.436 41.2026C232.544 38.2807 233.112 35.8024 234.14 33.7678C235.168 31.7331 236.556 30.2042 238.303 29.1812C240.084 28.1265 242.107 27.6392 244.372 27.7193Z" fill="#375140"/>
<path d="M277.59 32.1187L260.205 54.6694L264.588 55.3447C265.887 55.5448 267.081 55.4629 268.171 55.0989C269.26 54.7349 270.226 54.0028 271.068 52.9026C271.909 51.8024 272.553 50.2729 273 48.3141L274.12 48.4866C273.772 50.6601 273.498 52.4792 273.296 53.944C273.095 55.4088 272.952 56.6165 272.866 57.5673C271.415 57.2773 269.913 56.9961 268.36 56.7235C266.806 56.451 265.267 56.1972 263.741 55.9621C262.085 55.7069 260.394 55.4631 258.667 55.2304C256.969 55.0352 255.335 54.8499 253.766 54.6747L271.151 32.1239L266.67 31.4336C265.274 31.2186 264.028 31.3092 262.933 31.7056C261.844 32.0696 260.911 32.8067 260.134 33.9169C259.395 34.9997 258.786 36.518 258.307 38.4718L257.235 38.3067C257.588 36.1008 257.863 34.2817 258.059 32.8494C258.255 31.417 258.399 30.2093 258.489 29.2261C259.908 29.511 261.394 29.7898 262.947 30.0623C264.5 30.3349 266.056 30.5912 267.615 30.8313C269.238 31.0814 270.897 31.3203 272.59 31.548C274.322 31.7482 275.988 31.9384 277.59 32.1187Z" fill="#375140"/>
<path d="M297.196 48.5557L296.285 51.7292L279.138 46.993L280.049 43.8195L297.196 48.5557Z" fill="#375140"/>
<path d="M321.219 46.1376C322.43 46.6493 323.34 47.2305 323.952 47.8812C324.606 48.5145 325.072 49.2107 325.348 49.9695C325.642 50.7713 325.696 51.6681 325.512 52.6599C325.357 53.6646 324.943 54.9339 324.269 56.4678L318.956 68.5588C318.401 69.822 318.266 70.7816 318.552 71.4374C318.868 72.1061 319.616 72.6898 320.797 73.1887L320.38 74.1362C319.879 73.8886 319.09 73.5195 318.014 73.0289C316.951 72.5082 315.89 72.024 314.831 71.5763C313.802 71.1413 312.76 70.7364 311.705 70.3616C310.693 69.9695 309.924 69.6798 309.396 69.4924L309.812 68.545C310.841 68.9799 311.666 69.0614 312.288 68.7893C312.91 68.5173 313.499 67.7496 314.054 66.4864L319.922 53.1321C320.305 52.2599 320.573 51.4459 320.726 50.6902C320.892 49.9044 320.825 49.1986 320.526 48.5728C320.24 47.917 319.613 47.3844 318.645 46.975C317.525 46.5017 316.388 46.3953 315.233 46.6559C314.108 46.9294 313.044 47.5138 312.04 48.4091C311.08 49.2872 310.303 50.403 309.708 51.7565L304.93 62.6293C304.375 63.8926 304.211 64.8393 304.436 65.4696C304.692 66.1126 305.319 66.6452 306.317 67.0674L305.901 68.0148C305.43 67.7801 304.702 67.4366 303.717 66.9843C302.775 66.5148 301.774 66.0562 300.715 65.6084C299.686 65.1735 298.599 64.7494 297.453 64.3362C296.32 63.893 295.475 63.5712 294.917 63.3711L295.333 62.4236C296.513 62.9225 297.444 63.0488 298.127 62.8023C298.839 62.5686 299.473 61.8202 300.028 60.5569L306.253 46.3906C306.848 45.0371 307.057 43.9486 306.881 43.1251C306.718 42.2715 306.001 41.5761 304.73 41.0388L305.146 40.0914C306.075 40.591 306.993 41.0327 307.901 41.4164C308.93 41.8514 309.903 42.2093 310.82 42.49C311.781 42.7535 312.685 42.9399 313.534 43.0492L311.374 47.9668C312.98 46.4346 314.629 45.5804 316.321 45.4041C318.043 45.2407 319.676 45.4852 321.219 46.1376Z" fill="#375140"/>
<path d="M343.142 57.7316C345.033 58.8581 346.471 60.2496 347.454 61.906C348.437 63.5623 348.848 65.4891 348.685 67.6862C348.522 69.8834 347.602 72.3367 345.925 75.0461C344.247 77.7555 342.452 79.6876 340.539 80.8423C338.644 81.9691 336.72 82.4864 334.768 82.3942C332.834 82.2741 330.921 81.6508 329.03 80.5243C327.167 79.4146 325.721 78.0371 324.692 76.3919C323.681 74.7187 323.248 72.7975 323.393 70.6282C323.584 68.4479 324.518 66.003 326.196 63.2936C327.873 60.5842 329.654 58.6437 331.539 57.4722C333.451 56.3175 335.398 55.7946 337.378 55.9036C339.358 56.0126 341.279 56.622 343.142 57.7316ZM342.623 58.5696C341.156 57.6953 339.437 57.8187 337.468 58.9398C335.517 60.033 333.382 62.451 331.064 66.1939C328.747 69.9368 327.544 72.9097 327.455 75.1125C327.383 77.2874 328.081 78.812 329.549 79.6863C330.988 80.5438 332.675 80.4399 334.61 79.3747C336.59 78.2983 338.738 75.8887 341.056 72.1458C343.373 68.4029 344.562 65.4216 344.623 63.202C344.73 60.9712 344.063 59.4271 342.623 58.5696Z" fill="#375140"/>
<path d="M374.023 80.3404L360.832 96.2252C359.887 97.3626 359.377 98.3631 359.3 99.2267C359.27 100.086 359.781 100.935 360.833 101.776L360.172 102.572C359.439 101.861 358.675 101.187 357.88 100.551C357.033 99.8747 356.193 99.2666 355.36 98.7273C354.527 98.1879 353.705 97.7629 352.896 97.4525L356.327 93.3201C354.426 94.3239 352.626 94.693 350.925 94.4273C349.271 94.1568 347.815 93.5192 346.557 92.5144C345.608 91.7556 344.915 90.9706 344.478 90.1594C344.021 89.3735 343.752 88.5914 343.673 87.8131C343.631 86.9385 343.845 86.0377 344.316 85.1107C344.808 84.1584 345.558 83.0756 346.565 81.8625L354.499 72.3088C355.443 71.1715 355.943 70.1837 355.999 69.3453C356.076 68.4817 355.575 67.6192 354.497 66.7579L355.158 65.9618C355.917 66.6938 356.681 67.3674 357.451 67.9826C358.298 68.6594 359.138 69.2674 359.971 69.8068C360.825 70.3209 361.646 70.7458 362.435 71.0816L349.841 86.2461C349.233 86.979 348.728 87.6898 348.327 88.3784C347.926 89.067 347.771 89.742 347.862 90.4035C347.953 91.0649 348.422 91.734 349.269 92.4107C350.168 93.1285 351.184 93.4988 352.317 93.5217C353.477 93.5652 354.64 93.296 355.806 92.7142C356.972 92.1325 358.028 91.2729 358.972 90.1356L366.087 81.5677C367.032 80.4303 367.532 79.4425 367.588 78.6041C367.664 77.7405 367.164 76.878 366.086 76.0168L366.747 75.2206C367.505 75.9527 368.269 76.6263 369.039 77.2415C369.886 77.9182 370.726 78.5263 371.559 79.0657C372.413 79.5798 373.235 80.0047 374.023 80.3404Z" fill="#375140"/>
<path d="M384.744 90.8641C385.659 91.8077 386.291 92.7673 386.642 93.7427C387.039 94.7193 387.267 95.473 387.324 96.0037C387.453 97.3647 388.331 97.4675 389.955 96.312L390.71 97.0905C389.991 97.6706 389.14 98.397 388.156 99.2696C387.196 100.12 385.935 101.273 384.373 102.729L383.619 101.951C384.371 100.98 384.996 99.9259 385.494 98.7879C386.014 97.6735 386.231 96.5283 386.144 95.3525C386.079 94.2002 385.544 93.105 384.538 92.067C383.783 91.2885 382.926 90.8525 381.967 90.7592C381.031 90.6435 380.131 90.9889 379.266 91.7954C378.545 92.4675 378.126 93.2624 378.009 94.1799C377.892 95.0974 377.925 96.0993 378.109 97.1856C378.315 98.2954 378.531 99.4861 378.757 100.757C379.003 102.19 379.156 103.529 379.219 104.773C379.328 106.019 379.216 107.178 378.884 108.251C378.575 109.348 377.94 110.345 376.979 111.241C375.873 112.271 374.65 112.85 373.31 112.977C371.992 113.128 370.672 112.922 369.349 112.359C368.05 111.774 366.852 110.915 365.754 109.783C365.205 109.217 364.751 108.63 364.391 108.022C364.007 107.437 363.693 106.854 363.45 106.273C363.343 105.879 363.235 105.485 363.128 105.091C363.068 104.698 362.995 104.316 362.911 103.946C362.85 103.553 362.621 103.363 362.221 103.376C361.822 103.389 361.301 103.606 360.656 104.027L359.902 103.249C360.717 102.579 361.688 101.74 362.816 100.733C363.944 99.7264 365.421 98.3716 367.248 96.6689L368.002 97.4474C366.841 98.8448 365.915 100.179 365.226 101.45C364.537 102.722 364.213 103.945 364.254 105.119C364.341 106.295 364.934 107.449 366.031 108.582C366.465 109.03 366.996 109.388 367.623 109.658C368.273 109.904 368.964 109.956 369.695 109.814C370.449 109.695 371.21 109.277 371.979 108.56C373.036 107.574 373.547 106.402 373.511 105.043C373.522 103.686 373.363 102.082 373.034 100.233C372.834 98.893 372.655 97.5998 372.499 96.3531C372.39 95.1077 372.467 93.936 372.729 92.838C373.015 91.7176 373.651 90.6982 374.636 89.7796C375.718 88.7714 376.847 88.1902 378.024 88.0359C379.224 87.9052 380.403 88.1077 381.563 88.6433C382.746 89.1566 383.807 89.8968 384.744 90.8641Z" fill="#375140"/>
<path d="M427.235 133.702C428.27 135.607 428.826 137.318 428.903 138.835C429.025 140.365 428.966 141.805 428.727 143.153C428.604 143.959 428.781 144.422 429.258 144.543C429.78 144.678 430.698 144.476 432.013 143.937L432.554 144.932C431.416 145.453 430.054 146.11 428.466 146.904C426.907 147.682 424.833 148.748 422.242 150.103L421.7 149.107C422.871 148.235 423.81 147.485 424.515 146.857C425.236 146.257 425.801 145.647 426.211 145.025C426.636 144.432 426.984 143.731 427.255 142.922C427.848 141.537 428.048 140.116 427.855 138.66C427.662 137.204 427.196 135.798 426.459 134.441C425.659 132.969 424.574 131.868 423.205 131.139C421.866 130.393 420.3 129.989 418.508 129.925C416.732 129.89 414.802 130.158 412.72 130.728C410.637 131.299 408.489 132.162 406.276 133.319C404.006 134.507 402.056 135.804 400.429 137.212C398.83 138.604 397.581 140.054 396.681 141.563C395.826 143.085 395.348 144.613 395.248 146.149C395.192 147.697 395.557 149.194 396.342 150.637C396.985 151.82 397.884 152.925 399.041 153.952C400.226 154.963 401.517 155.585 402.915 155.818C404.228 156.169 405.501 156.207 406.735 155.933C408.014 155.672 409.655 155.147 411.657 154.36L412.198 155.356C409.52 156.756 407.359 157.905 405.715 158.802C404.1 159.683 402.741 160.45 401.637 161.101L401.096 160.105C402.285 159.335 402.961 158.722 403.124 158.266C403.303 157.839 403.017 157.414 402.264 156.992C400.926 156.32 399.637 155.53 398.396 154.622C397.199 153.728 396.091 152.343 395.071 150.467C393.518 147.609 392.787 144.785 392.878 141.995C392.968 139.204 393.871 136.6 395.586 134.184C397.301 131.767 399.818 129.691 403.136 127.955C406.397 126.25 409.579 125.364 412.684 125.298C415.804 125.26 418.629 125.951 421.158 127.372C423.687 128.792 425.713 130.902 427.235 133.702Z" fill="#375140"/>
<path d="M430.142 164.162C430.89 166.232 431.119 168.222 430.831 170.131C430.542 172.039 429.639 173.796 428.123 175.401C426.607 177.006 424.344 178.331 421.334 179.377C418.324 180.422 415.715 180.79 413.507 180.479C411.33 180.157 409.517 179.344 408.068 178.039C406.65 176.723 405.567 175.03 404.819 172.96C404.083 170.92 403.838 168.936 404.084 167.007C404.362 165.068 405.243 163.301 406.728 161.707C408.255 160.133 410.524 158.823 413.534 157.778C416.545 156.732 419.148 156.349 421.345 156.629C423.553 156.94 425.387 157.764 426.847 159.099C428.308 160.435 429.406 162.123 430.142 164.162ZM429.211 164.486C428.631 162.879 427.226 161.889 424.996 161.516C422.796 161.133 419.618 161.663 415.459 163.108C411.301 164.553 408.49 166.103 407.027 167.759C405.596 169.404 405.17 171.03 405.75 172.636C406.319 174.212 407.688 175.197 409.856 175.592C412.066 176.006 415.251 175.491 419.409 174.046C423.568 172.602 426.373 171.036 427.824 169.349C429.318 167.683 429.78 166.061 429.211 164.486Z" fill="#375140"/>
<path d="M438.389 195.135C438.657 196.421 438.697 197.502 438.511 198.377C438.363 199.278 438.056 200.06 437.59 200.723C437.098 201.425 436.393 201.985 435.474 202.404C434.561 202.855 433.283 203.245 431.64 203.574L418.691 206.17C417.338 206.441 416.474 206.882 416.098 207.493C415.728 208.137 415.674 209.086 415.936 210.34L414.921 210.544C414.839 209.991 414.694 209.132 414.485 207.967C414.308 206.797 414.102 205.649 413.868 204.523C413.64 203.429 413.38 202.342 413.088 201.262C412.835 200.207 412.635 199.409 412.489 198.869L413.503 198.665C413.731 199.759 414.134 200.482 414.711 200.836C415.288 201.189 416.253 201.23 417.605 200.959L431.908 198.093C432.842 197.905 433.663 197.657 434.37 197.348C435.109 197.032 435.651 196.572 435.995 195.967C436.371 195.355 436.452 194.535 436.237 193.506C435.989 192.316 435.43 191.322 434.559 190.525C433.695 189.76 432.61 189.224 431.304 188.916C430.038 188.634 428.679 188.638 427.23 188.928L415.585 191.262C414.232 191.534 413.361 191.943 412.972 192.49C412.589 193.069 412.508 193.889 412.729 194.951L411.715 195.154C411.64 194.633 411.508 193.839 411.319 192.771C411.169 191.729 410.977 190.645 410.742 189.519C410.514 188.426 410.244 187.29 409.932 186.113C409.652 184.93 409.435 184.052 409.283 183.479L410.297 183.276C410.559 184.53 410.984 185.366 411.575 185.784C412.172 186.234 413.147 186.323 414.5 186.052L429.672 183.011C431.121 182.72 432.134 182.266 432.71 181.648C433.318 181.024 433.481 180.036 433.2 178.685L434.215 178.482C434.332 179.53 434.492 180.537 434.693 181.502C434.921 182.596 435.18 183.599 435.471 184.512C435.801 185.451 436.162 186.3 436.555 187.059L431.289 188.115C433.46 188.551 435.099 189.412 436.206 190.697C437.319 192.016 438.047 193.495 438.389 195.135Z" fill="#375140"/>
<path d="M448.306 214.781L440.155 215.463L440.743 222.238L439.761 222.32L439.172 215.545L419.873 217.158C418.531 217.27 417.603 217.595 417.089 218.132C416.575 218.67 416.358 219.396 416.437 220.313C416.511 221.164 416.92 221.888 417.665 222.485C418.412 223.115 419.625 223.607 421.305 223.961L421.042 224.923C419.273 224.675 417.738 224.094 416.439 223.181C415.175 222.298 414.459 220.89 414.292 218.959C414.195 217.846 414.261 216.901 414.49 216.124C414.687 215.349 415.023 214.662 415.498 214.062C416.189 213.279 417.047 212.712 418.071 212.363C419.096 212.014 420.476 211.767 422.212 211.622L438.712 210.243L438.319 205.726L439.302 205.644L439.694 210.16L446.864 209.561C446.985 210.573 447.149 211.515 447.357 212.388C447.597 213.258 447.914 214.056 448.306 214.781Z" fill="#375140"/>
<path d="M414.976 231.477C415.005 230.097 415.293 228.92 415.84 227.946C416.386 226.971 417.125 226.247 418.055 225.773C418.985 225.3 420.042 225.075 421.224 225.099C422.669 225.129 423.828 225.481 424.701 226.157C425.607 226.832 426.328 227.685 426.864 228.715C427.4 229.777 427.837 230.887 428.173 232.044C428.542 233.235 428.88 234.343 429.187 235.368C429.525 236.426 429.918 237.288 430.364 237.955C430.809 238.654 431.409 239.011 432.164 239.027L435.515 239.096C436.697 239.12 437.637 238.942 438.336 238.562C439.066 238.216 439.586 237.717 439.896 237.067C440.205 236.449 440.369 235.696 440.387 234.809C440.404 234.054 440.306 233.247 440.094 232.388C439.915 231.53 439.519 230.848 438.906 230.343C438.693 231.061 438.286 231.644 437.685 232.092C437.116 232.573 436.405 232.805 435.551 232.788C434.631 232.769 433.915 232.442 433.403 231.807C432.89 231.205 432.644 230.444 432.663 229.524C432.685 228.506 433.013 227.757 433.648 227.277C434.315 226.798 435.076 226.567 435.93 226.585C436.817 226.603 437.535 226.831 438.084 227.27C438.633 227.741 439.146 228.343 439.623 229.076C440.132 229.875 440.554 230.886 440.889 232.109C441.223 233.364 441.375 234.748 441.342 236.258C441.312 237.671 441.122 238.883 440.772 239.894C440.454 240.939 439.942 241.799 439.238 242.475C438.465 243.281 437.501 243.803 436.345 244.042C435.223 244.282 433.857 244.385 432.248 244.352L418.649 244.072C417.828 244.055 417.235 244.142 416.869 244.331C416.536 244.554 416.364 244.912 416.354 245.405C416.347 245.733 416.422 246.047 416.58 246.346C416.737 246.678 416.975 247.061 417.295 247.494L416.447 247.97C415.903 247.269 415.475 246.553 415.162 245.824C414.848 245.127 414.703 244.237 414.726 243.153C414.748 242.102 414.931 241.252 415.273 240.602C415.616 239.951 416.103 239.469 416.734 239.153C417.364 238.87 418.139 238.738 419.059 238.757C417.698 237.875 416.668 236.835 415.971 235.638C415.274 234.44 414.942 233.053 414.976 231.477ZM417.29 233.89C417.27 234.81 417.515 235.669 418.023 236.469C418.531 237.301 419.304 238.072 420.34 238.784L430.144 238.985C429.627 238.613 429.178 238.078 428.799 237.38C428.452 236.683 428.09 235.936 427.713 235.14C427.335 234.344 426.892 233.579 426.382 232.845C425.904 232.145 425.276 231.557 424.497 231.081C423.719 230.605 422.722 230.355 421.506 230.33C420.225 230.303 419.2 230.611 418.431 231.252C417.694 231.894 417.314 232.774 417.29 233.89Z" fill="#375140"/>
<path d="M438.826 262.402C438.665 263.508 438.365 264.544 437.926 265.511C437.519 266.482 437.017 267.307 436.42 267.987C435.818 268.699 435.148 269.202 434.408 269.496C433.663 269.823 432.884 269.93 432.07 269.816C431.094 269.679 430.37 269.296 429.897 268.666C429.425 268.036 429.252 267.282 429.38 266.404C429.508 265.526 429.858 264.829 430.431 264.312C431.005 263.795 431.747 263.6 432.658 263.728C433.504 263.846 434.151 264.186 434.601 264.746C435.083 265.312 435.358 265.931 435.426 266.604C435.957 266.379 436.439 265.916 436.873 265.214C437.335 264.549 437.628 263.794 437.751 262.948C437.879 262.071 437.774 261.193 437.437 260.317C437.095 259.473 436.497 258.676 435.643 257.926C434.79 257.176 433.643 256.502 432.203 255.902C430.758 255.335 428.979 254.903 426.864 254.607C424.131 254.224 421.906 254.228 420.19 254.618C418.501 255.045 417.239 255.731 416.404 256.675C415.57 257.62 415.065 258.694 414.89 259.897C414.776 260.677 414.807 261.494 414.981 262.348C415.151 263.234 415.523 264.099 416.097 264.942C416.667 265.818 417.495 266.631 418.581 267.38L418.105 268.258C417.083 267.751 416.076 267.029 415.083 266.094C414.086 265.191 413.319 264.072 412.783 262.736C412.247 261.401 412.109 259.839 412.37 258.051C412.668 256.003 413.442 254.22 414.692 252.704C415.941 251.187 417.597 250.075 419.659 249.369C421.753 248.667 424.199 248.511 426.997 248.903C429.73 249.286 432.034 250.106 433.909 251.364C435.812 252.659 437.189 254.261 438.04 256.172C438.891 258.082 439.153 260.159 438.826 262.402Z" fill="#375140"/>
<path d="M441.79 283.758L433.847 281.804L432.162 288.393L431.205 288.158L432.89 281.569L414.083 276.944C412.775 276.622 411.789 276.634 411.125 276.978C410.46 277.322 410.014 277.939 409.786 278.831C409.575 279.658 409.723 280.473 410.23 281.274C410.729 282.107 411.715 282.959 413.188 283.828L412.621 284.653C411.028 283.855 409.767 282.818 408.839 281.541C407.935 280.304 407.723 278.746 408.203 276.868C408.479 275.786 408.855 274.914 409.329 274.252C409.771 273.583 410.317 273.041 410.966 272.625C411.878 272.105 412.878 271.844 413.964 271.84C415.05 271.836 416.438 272.043 418.129 272.458L434.208 276.412L435.33 272.02L436.287 272.255L435.165 276.648L442.151 278.366C441.931 279.36 441.775 280.303 441.683 281.194C441.622 282.093 441.658 282.947 441.79 283.758Z" fill="#375140"/>
<path d="M427.701 302.79C426.689 305.497 425.075 307.326 422.862 308.275C420.648 309.224 417.763 309.059 414.208 307.779L420.165 291.855L421.08 292.08L416.919 303.204C418.423 303.78 419.86 304.157 421.231 304.336C422.633 304.527 423.829 304.468 424.821 304.162C425.812 303.855 426.486 303.225 426.843 302.271C427.338 300.948 427.059 299.538 426.005 298.042C424.971 296.588 422.948 295.196 419.938 293.869L419.654 293.924C419.233 293.737 418.765 293.534 418.251 293.314C417.768 293.105 417.279 292.912 416.785 292.734C414.652 291.966 412.738 291.644 411.043 291.768C409.349 291.891 407.935 292.342 406.802 293.122C405.699 293.912 404.947 294.846 404.544 295.923C404.233 296.753 404.058 297.598 404.017 298.456C403.996 299.356 404.162 300.272 404.516 301.202C404.9 302.143 405.545 303.091 406.451 304.045L405.735 304.835C404.822 304.087 403.999 303.145 403.267 302.009C402.535 300.873 402.068 299.588 401.868 298.154C401.699 296.732 401.913 295.22 402.512 293.62C403.317 291.466 404.498 289.762 406.055 288.506C407.643 287.262 409.51 286.538 411.656 286.332C413.802 286.127 416.127 286.475 418.631 287.376C421.382 288.366 423.564 289.658 425.178 291.251C426.792 292.844 427.81 294.624 428.231 296.591C428.672 298.6 428.496 300.666 427.701 302.79Z" fill="#375140"/>
<path d="M412.993 332.494L396.961 309.275L394.916 313.211C394.31 314.377 394.007 315.529 394.008 316.668C394.008 317.807 394.401 318.939 395.185 320.066C395.969 321.192 397.227 322.262 398.959 323.275L398.437 324.281C396.468 323.296 394.815 322.488 393.477 321.856C392.14 321.224 391.03 320.724 390.147 320.357C390.888 319.074 391.636 317.741 392.393 316.356C393.149 314.972 393.884 313.594 394.596 312.224C395.368 310.737 396.141 309.214 396.915 307.654C397.644 306.109 398.342 304.622 399.011 303.193L415.042 326.413L417.133 322.39C417.784 321.136 418.095 319.933 418.065 318.779C418.064 317.641 417.657 316.537 416.842 315.469C416.042 314.444 414.783 313.411 413.067 312.369L413.567 311.407C415.565 312.406 417.218 313.214 418.526 313.832C419.834 314.449 420.944 314.949 421.856 315.331C421.131 316.585 420.39 317.903 419.633 319.288C418.877 320.673 418.135 322.065 417.408 323.464C416.65 324.921 415.892 326.416 415.134 327.946C414.39 329.521 413.676 331.037 412.993 332.494Z" fill="#375140"/>
<path d="M391 345.664L388.241 343.851L398.271 329.159L401.031 330.972L391 345.664Z" fill="#375140"/>
<path d="M385.709 368.604C384.83 369.581 383.98 370.257 383.158 370.631C382.338 371.052 381.518 371.276 380.698 371.305C379.83 371.336 378.947 371.115 378.047 370.642C377.126 370.193 376.032 369.42 374.765 368.324L364.775 359.686C363.731 358.783 362.847 358.366 362.123 358.435C361.377 358.528 360.576 359.051 359.719 360.004L358.936 359.327C359.334 358.933 359.941 358.307 360.757 357.449C361.597 356.612 362.402 355.766 363.17 354.911C363.917 354.08 364.639 353.228 365.336 352.354C366.035 351.527 366.56 350.894 366.908 350.457L367.691 351.134C366.944 351.965 366.604 352.713 366.669 353.377C366.734 354.041 367.289 354.825 368.332 355.727L379.366 365.268C380.087 365.892 380.788 366.389 381.469 366.761C382.175 367.155 382.878 367.306 383.577 367.216C384.301 367.148 385.015 366.723 385.718 365.941C386.53 365.037 386.994 364.005 387.109 362.845C387.202 361.709 386.975 360.536 386.429 359.326C385.886 358.161 385.055 357.096 383.937 356.129L374.954 348.36C373.91 347.458 373.048 347.017 372.368 347.036C371.666 347.081 370.952 347.506 370.227 348.312L369.445 347.635C369.821 347.266 370.384 346.689 371.133 345.904C371.886 345.165 372.646 344.368 373.415 343.513C374.162 342.682 374.916 341.793 375.679 340.846C376.467 339.92 377.046 339.227 377.416 338.766L378.199 339.443C377.343 340.395 376.925 341.229 376.947 341.942C376.946 342.68 377.468 343.5 378.511 344.402L390.216 354.523C391.334 355.49 392.319 356.016 393.17 356.101C394.046 356.207 394.946 355.747 395.868 354.721L396.651 355.398C395.873 356.115 395.155 356.84 394.496 357.574C393.75 358.404 393.095 359.206 392.533 359.979C391.974 360.798 391.506 361.588 391.131 362.35L387.068 358.836C388.038 360.804 388.339 362.606 387.972 364.243C387.583 365.904 386.829 367.358 385.709 368.604Z" fill="#375140"/>
<path d="M367.626 385.287C365.942 386.705 364.144 387.618 362.231 388.026C360.319 388.434 358.324 388.225 356.246 387.398C354.169 386.57 352.081 384.958 349.982 382.56C347.883 380.162 346.574 377.893 346.055 375.754C345.558 373.64 345.659 371.686 346.36 369.893C347.083 368.126 348.286 366.533 349.97 365.115C351.628 363.718 353.415 362.793 355.331 362.339C357.269 361.909 359.266 362.096 361.321 362.898C363.374 363.747 365.449 365.37 367.548 367.768C369.647 370.166 370.968 372.424 371.513 374.542C372.032 376.681 371.929 378.658 371.203 380.472C370.476 382.285 369.284 383.891 367.626 385.287ZM366.977 384.546C368.283 383.445 368.702 381.804 368.233 379.623C367.786 377.466 366.112 374.731 363.213 371.418C360.314 368.106 357.811 366.069 355.705 365.309C353.621 364.574 351.925 364.756 350.619 365.856C349.337 366.936 348.909 368.541 349.335 370.674C349.757 372.852 351.418 375.597 354.317 378.91C357.217 382.222 359.732 384.248 361.863 384.987C363.99 385.772 365.695 385.625 366.977 384.546Z" fill="#375140"/>
<path d="M336.119 406.904L324.795 389.638C323.984 388.402 323.172 387.613 322.359 387.271C321.536 386.975 320.555 387.186 319.416 387.905L318.848 387.04C319.764 386.579 320.652 386.076 321.513 385.533C322.43 384.954 323.279 384.361 324.058 383.753C324.837 383.144 325.502 382.511 326.053 381.853L328.999 386.345C328.612 384.258 328.81 382.463 329.592 380.96C330.364 379.502 331.431 378.343 332.792 377.484C333.82 376.835 334.794 376.434 335.715 376.281C336.617 376.1 337.458 376.093 338.237 376.262C339.097 376.496 339.904 376.978 340.657 377.707C341.428 378.463 342.246 379.5 343.111 380.819L349.921 391.203C350.732 392.44 351.535 393.215 352.33 393.529C353.143 393.87 354.133 393.673 355.3 392.936L355.868 393.802C354.925 394.28 354.036 394.782 353.203 395.308C352.286 395.887 351.438 396.48 350.658 397.089C349.897 397.725 349.232 398.358 348.663 398.988L337.853 382.505C337.33 381.709 336.797 381.016 336.254 380.427C335.71 379.837 335.104 379.482 334.435 379.36C333.766 379.239 332.973 379.467 332.056 380.046C331.084 380.659 330.412 381.491 330.04 382.541C329.64 383.609 329.543 384.778 329.747 386.047C329.951 387.317 330.458 388.57 331.269 389.806L337.377 399.119C338.187 400.355 338.99 401.13 339.785 401.444C340.599 401.785 341.589 401.588 342.756 400.852L343.323 401.717C342.38 402.196 341.492 402.698 340.658 403.224C339.741 403.802 338.893 404.396 338.114 405.004C337.352 405.64 336.687 406.273 336.119 406.904Z" fill="#375140"/>
<path d="M322.566 413.518C321.375 414.075 320.255 414.362 319.205 414.381C318.14 414.444 317.342 414.418 316.812 414.303C315.457 413.993 315.09 414.781 315.713 416.665L314.731 417.124C314.389 416.269 313.945 415.243 313.401 414.047C312.871 412.88 312.14 411.337 311.207 409.416L312.19 408.957C312.899 409.967 313.728 410.885 314.677 411.711C315.596 412.55 316.637 413.115 317.801 413.406C318.934 413.71 320.156 413.556 321.466 412.945C322.448 412.486 323.13 411.823 323.512 410.955C323.909 410.117 323.849 409.166 323.332 408.103C322.902 407.216 322.261 406.573 321.409 406.173C320.558 405.773 319.579 405.487 318.473 405.315C317.337 405.156 316.12 404.982 314.822 404.79C313.362 404.566 312.021 404.286 310.799 403.95C309.562 403.658 308.475 403.187 307.539 402.537C306.572 401.901 305.802 400.991 305.228 399.809C304.568 398.45 304.381 397.123 304.665 395.83C304.921 394.551 305.522 393.382 306.468 392.323C307.429 391.294 308.624 390.446 310.053 389.778C310.767 389.445 311.473 389.206 312.17 389.061C312.852 388.888 313.511 388.779 314.148 388.736C314.561 388.76 314.975 388.784 315.388 388.809C315.786 388.876 316.177 388.93 316.561 388.968C316.959 389.036 317.213 388.881 317.322 388.504C317.431 388.127 317.38 387.57 317.169 386.835L318.151 386.376C318.55 387.35 319.065 388.523 319.696 389.896C320.326 391.27 321.187 393.079 322.277 395.325L321.295 395.784C320.297 394.256 319.289 392.969 318.269 391.922C317.25 390.876 316.166 390.186 315.018 389.852C313.855 389.561 312.559 389.75 311.13 390.417C310.564 390.681 310.056 391.064 309.606 391.564C309.169 392.095 308.909 392.724 308.824 393.452C308.71 394.194 308.882 395.038 309.341 395.984C309.973 397.285 310.951 398.133 312.275 398.529C313.584 398.969 315.183 399.328 317.071 399.607C318.427 399.843 319.732 400.086 320.985 400.334C322.222 400.627 323.331 401.069 324.313 401.662C325.309 402.284 326.101 403.201 326.69 404.413C327.335 405.743 327.554 406.982 327.345 408.131C327.106 409.294 326.551 410.333 325.681 411.247C324.824 412.191 323.786 412.948 322.566 413.518Z" fill="#375140"/>
</svg>
