<svg xmlns:xlink="http://www.w3.org/1999/xlink" xmlns="http://www.w3.org/2000/svg" width="34" height="34" viewBox="0 0 34 34" fill="none">
<path d="M21.25 29.75L12.75 26.775L6.1625 29.325C5.69028 29.5139 5.25347 29.461 4.85208 29.1663C4.45069 28.8717 4.25 28.4759 4.25 27.9792V8.14583C4.25 7.83889 4.33878 7.56736 4.51633 7.33125C4.69389 7.09514 4.93567 6.91806 5.24167 6.8L12.75 4.25L21.25 7.225L27.8375 4.675C28.3097 4.48611 28.7465 4.53947 29.1479 4.83508C29.5493 5.13069 29.75 5.52594 29.75 6.02083V25.8542C29.75 26.1611 29.6617 26.4326 29.4851 26.6688C29.3085 26.9049 29.0662 27.0819 28.7583 27.2L21.25 29.75ZM19.8333 26.2792V9.70417L14.1667 7.72083V24.2958L19.8333 26.2792Z" fill="white"/>
</svg>