<svg width="1218" height="549" viewBox="0 0 1218 549" fill="none" xmlns="http://www.w3.org/2000/svg">
<path d="M754.027 196.557C760.998 196.557 766.65 190.906 766.65 183.934C766.65 176.963 760.998 171.311 754.027 171.311C747.055 171.311 741.404 176.963 741.404 183.934C741.404 190.906 747.055 196.557 754.027 196.557Z" fill="white"/>
<path d="M465.502 196.557C472.474 196.557 478.125 190.906 478.125 183.934C478.125 176.963 472.474 171.311 465.502 171.311C458.531 171.311 452.879 176.963 452.879 183.934C452.879 190.906 458.531 196.557 465.502 196.557Z" fill="white"/>
<path d="M436.199 125.328C443.412 125.328 449.273 119.467 449.273 112.254C449.273 105.041 443.412 99.1801 436.199 99.1801H419.97C412.757 99.1801 406.896 105.041 406.896 112.254C406.896 119.467 412.757 125.328 419.97 125.328H436.199Z" fill="white"/>
<path d="M799.559 99.6309H783.33C776.117 99.6309 770.256 105.492 770.256 112.705C770.256 119.918 776.117 125.778 783.33 125.778H799.559C806.772 125.778 812.633 119.918 812.633 112.705C812.633 105.492 806.772 99.6309 799.559 99.6309Z" fill="white"/>
<path d="M772.059 131.639H770.256L742.305 74.3851C741.404 73.0326 740.953 71.6801 740.051 69.8769C739.6 68.5244 738.699 67.172 738.248 65.8195C738.248 65.8195 738.248 65.3687 737.797 65.3687C737.346 64.0162 736.445 63.1146 735.994 61.7621C735.994 61.7621 735.994 61.3113 735.543 61.3113C734.641 59.9589 734.19 59.0572 733.289 58.1556C733.289 58.1556 733.289 58.1556 733.289 57.7048C729.231 52.2949 724.272 48.6884 716.608 48.6884H628.248H601.199H567.838H528.617H502.92C495.256 48.6884 490.297 52.2949 486.24 57.7048C486.24 57.7048 486.24 57.7048 486.24 58.1556C485.338 59.0572 484.888 60.4097 483.986 61.3113C483.986 61.3113 483.986 61.7621 483.535 61.7621C482.634 63.1146 482.183 64.0162 481.732 65.3687C481.732 65.3687 481.732 65.8195 481.281 65.8195C479.929 68.5244 478.576 71.2293 477.224 73.9342L450.175 128.934L449.273 131.188H447.47C431.24 131.188 417.716 144.713 417.716 160.942V182.582V243.893C417.716 250.655 419.97 256.516 423.576 261.475V308.811C423.576 310.614 424.027 312.417 425.38 313.77C427.183 316.024 429.888 317.827 432.593 317.827H466.404C469.56 317.827 472.265 316.475 473.617 313.77C474.519 312.417 475.42 310.614 475.42 308.811V273.647H744.559V308.811C744.559 310.614 745.01 312.417 746.363 313.77C748.166 316.024 750.871 317.827 753.576 317.827H787.387C790.543 317.827 793.248 316.475 794.6 313.77C795.502 312.417 796.403 310.614 796.403 308.811V262.376C800.01 257.417 802.264 251.106 802.264 244.795V183.032V161.393C801.813 145.164 788.739 131.639 772.059 131.639ZM572.797 58.1556H597.592H636.814L604.355 131.639H565.133H540.338L572.797 58.1556ZM524.109 58.1556H538.535L506.076 131.639H491.65L524.109 58.1556ZM727.879 254.262H491.65C489.396 254.262 487.593 252.458 487.593 250.204C487.593 247.95 489.396 246.147 491.65 246.147H728.33C730.584 246.147 732.387 247.95 732.387 250.204C731.936 252.458 730.133 254.262 727.879 254.262ZM775.215 197.459C770.707 204.672 762.592 209.18 753.576 209.18C749.969 209.18 746.813 208.278 744.108 207.377C735.994 204.221 729.682 196.557 728.33 187.09C728.33 187.09 728.33 187.09 727.879 187.09H491.65C491.65 187.09 491.65 187.09 491.199 187.09C489.847 196.106 483.535 203.77 475.42 207.377C472.265 208.729 469.109 209.18 465.953 209.18C456.937 209.18 449.273 204.672 444.314 197.459C441.609 193.401 440.257 188.442 440.257 183.483C440.257 171.311 449.273 160.491 460.543 158.237C462.347 157.787 464.15 157.787 465.953 157.787C470.461 157.787 474.97 159.139 479.027 161.393C485.789 165.45 490.297 172.213 491.65 179.877C491.65 179.877 491.65 179.877 492.101 179.877H728.781C728.781 179.877 728.781 179.877 729.231 179.877C730.584 172.213 735.092 165.45 741.854 161.393C745.461 159.139 749.969 157.787 754.928 157.787C756.731 157.787 758.535 157.787 760.338 158.237C772.059 160.491 780.625 171.311 780.625 183.483C779.723 188.442 777.92 193.401 775.215 197.459Z" fill="white"/>
<path d="M176.716 529.867V466.667L152.033 513.728H141.59L116.906 466.667V529.867H98.1906V433.575H118.263L146.743 488.367L175.495 433.575H195.432V529.867H176.716ZM208.096 508.846C208.096 504.234 209.361 500.211 211.893 496.775C214.515 493.249 218.132 490.537 222.743 488.638C227.354 486.739 232.643 485.79 238.611 485.79C241.594 485.79 244.623 486.016 247.697 486.468C250.771 486.92 253.439 487.643 255.699 488.638V484.84C255.699 480.32 254.343 476.839 251.63 474.398C249.008 471.956 245.075 470.736 239.831 470.736C235.943 470.736 232.236 471.414 228.71 472.77C225.184 474.126 221.477 476.115 217.589 478.737L211.757 466.803C216.459 463.729 221.251 461.423 226.133 459.886C231.106 458.349 236.305 457.58 241.73 457.58C251.856 457.58 259.722 460.112 265.328 465.175C271.024 470.238 273.872 477.472 273.872 486.875V509.524C273.872 511.422 274.189 512.779 274.822 513.592C275.545 514.406 276.675 514.903 278.212 515.084V529.867C276.585 530.138 275.093 530.364 273.737 530.545C272.471 530.726 271.386 530.816 270.482 530.816C266.865 530.816 264.108 530.003 262.209 528.375C260.401 526.748 259.27 524.759 258.818 522.408L258.411 518.746C255.337 522.724 251.495 525.798 246.884 527.968C242.272 530.138 237.571 531.223 232.779 531.223C228.077 531.223 223.828 530.274 220.03 528.375C216.323 526.386 213.385 523.719 211.215 520.374C209.135 516.938 208.096 513.095 208.096 508.846ZM252.308 512.507C253.303 511.422 254.117 510.337 254.75 509.252C255.383 508.167 255.699 507.173 255.699 506.269V499.081C253.529 498.177 251.178 497.499 248.647 497.046C246.115 496.504 243.719 496.233 241.459 496.233C236.757 496.233 232.869 497.272 229.795 499.352C226.811 501.341 225.32 504.008 225.32 507.354C225.32 509.162 225.817 510.88 226.811 512.507C227.806 514.135 229.253 515.446 231.151 516.44C233.05 517.435 235.31 517.932 237.932 517.932C240.645 517.932 243.312 517.435 245.934 516.44C248.556 515.355 250.681 514.044 252.308 512.507ZM333.169 474.533C327.654 474.533 322.726 475.618 318.386 477.788C314.046 479.868 310.927 482.897 309.028 486.875V529.867H290.855V458.801H307.536V473.991C310.068 469.108 313.278 465.266 317.166 462.463C321.053 459.66 325.167 458.123 329.507 457.852C330.502 457.852 331.27 457.852 331.813 457.852C332.355 457.852 332.807 457.897 333.169 457.987V474.533ZM385.617 474.533C380.101 474.533 375.174 475.618 370.834 477.788C366.494 479.868 363.375 482.897 361.476 486.875V529.867H343.303V458.801H359.984V473.991C362.516 469.108 365.725 465.266 369.613 462.463C373.501 459.66 377.615 458.123 381.955 457.852C382.95 457.852 383.718 457.852 384.261 457.852C384.803 457.852 385.255 457.897 385.617 457.987V474.533ZM390.471 508.846C390.471 504.234 391.736 500.211 394.268 496.775C396.89 493.249 400.507 490.537 405.118 488.638C409.729 486.739 415.018 485.79 420.986 485.79C423.969 485.79 426.998 486.016 430.072 486.468C433.146 486.92 435.814 487.643 438.074 488.638V484.84C438.074 480.32 436.718 476.839 434.005 474.398C431.383 471.956 427.45 470.736 422.206 470.736C418.318 470.736 414.611 471.414 411.085 472.77C407.559 474.126 403.852 476.115 399.964 478.737L394.132 466.803C398.834 463.729 403.626 461.423 408.508 459.886C413.481 458.349 418.68 457.58 424.105 457.58C434.231 457.58 442.097 460.112 447.703 465.175C453.399 470.238 456.247 477.472 456.247 486.875V509.524C456.247 511.422 456.564 512.779 457.197 513.592C457.92 514.406 459.05 514.903 460.587 515.084V529.867C458.96 530.138 457.468 530.364 456.112 530.545C454.846 530.726 453.761 530.816 452.857 530.816C449.24 530.816 446.483 530.003 444.584 528.375C442.776 526.748 441.645 524.759 441.193 522.408L440.786 518.746C437.712 522.724 433.87 525.798 429.259 527.968C424.647 530.138 419.946 531.223 415.154 531.223C410.452 531.223 406.203 530.274 402.405 528.375C398.698 526.386 395.76 523.719 393.59 520.374C391.51 516.938 390.471 513.095 390.471 508.846ZM434.683 512.507C435.678 511.422 436.492 510.337 437.125 509.252C437.758 508.167 438.074 507.173 438.074 506.269V499.081C435.904 498.177 433.553 497.499 431.022 497.046C428.49 496.504 426.094 496.233 423.834 496.233C419.132 496.233 415.244 497.272 412.17 499.352C409.186 501.341 407.695 504.008 407.695 507.354C407.695 509.162 408.192 510.88 409.186 512.507C410.181 514.135 411.628 515.446 413.526 516.44C415.425 517.435 417.685 517.932 420.307 517.932C423.02 517.932 425.687 517.435 428.309 516.44C430.931 515.355 433.056 514.044 434.683 512.507ZM521.783 529.867L501.032 499.216L491.403 508.71V529.867H473.23V430.863H491.403V490.808L520.02 458.937H539.278L512.832 489.045L541.177 529.867H521.783ZM578.103 531.223C572.407 531.223 567.253 530.274 562.642 528.375C558.031 526.386 554.098 523.719 550.843 520.374C547.588 516.938 545.056 513.05 543.248 508.71C541.53 504.28 540.671 499.623 540.671 494.741C540.671 487.96 542.163 481.766 545.147 476.161C548.221 470.555 552.561 466.079 558.167 462.734C563.863 459.298 570.553 457.58 578.239 457.58C586.014 457.58 592.66 459.298 598.175 462.734C603.69 466.079 607.895 470.555 610.788 476.161C613.772 481.676 615.264 487.643 615.264 494.063C615.264 495.148 615.218 496.278 615.128 497.453C615.038 498.538 614.947 499.442 614.857 500.166H559.93C560.291 503.782 561.331 506.947 563.049 509.659C564.857 512.372 567.118 514.451 569.83 515.898C572.633 517.254 575.617 517.932 578.781 517.932C582.398 517.932 585.788 517.073 588.953 515.355C592.208 513.547 594.423 511.196 595.598 508.303L611.195 512.643C609.477 516.26 606.991 519.469 603.736 522.272C600.571 525.075 596.819 527.29 592.479 528.918C588.139 530.455 583.347 531.223 578.103 531.223ZM559.523 488.638H596.683C596.322 485.021 595.282 481.902 593.564 479.28C591.937 476.567 589.767 474.488 587.054 473.041C584.342 471.504 581.313 470.736 577.967 470.736C574.712 470.736 571.729 471.504 569.016 473.041C566.394 474.488 564.224 476.567 562.506 479.28C560.879 481.902 559.884 485.021 559.523 488.638ZM659.427 531.223C653.64 531.223 648.441 530.274 643.83 528.375C639.219 526.386 635.286 523.674 632.031 520.238C628.776 516.712 626.244 512.733 624.436 508.303C622.718 503.873 621.859 499.216 621.859 494.334C621.859 487.643 623.351 481.54 626.335 476.025C629.409 470.419 633.749 465.944 639.355 462.598C644.96 459.253 651.606 457.58 659.291 457.58C666.976 457.58 673.577 459.253 679.092 462.598C684.607 465.944 688.721 470.329 691.434 475.754L673.667 481.179C672.13 478.557 670.096 476.567 667.564 475.211C665.032 473.765 662.23 473.041 659.155 473.041C655.72 473.041 652.555 473.945 649.662 475.754C646.859 477.472 644.644 479.958 643.016 483.213C641.389 486.377 640.575 490.085 640.575 494.334C640.575 498.493 641.389 502.2 643.016 505.455C644.734 508.62 646.995 511.151 649.797 513.05C652.6 514.858 655.72 515.762 659.155 515.762C661.325 515.762 663.36 515.401 665.258 514.677C667.248 513.954 669.011 512.959 670.548 511.694C672.085 510.428 673.215 508.981 673.938 507.354L691.705 512.779C690.077 516.305 687.681 519.469 684.517 522.272C681.443 525.075 677.781 527.29 673.531 528.918C669.372 530.455 664.671 531.223 659.427 531.223ZM768.935 529.867H750.762V489.994C750.762 484.479 749.677 480.365 747.507 477.652C745.427 474.94 742.534 473.584 738.827 473.584C736.657 473.584 734.352 474.217 731.91 475.482C729.469 476.748 727.254 478.511 725.265 480.772C723.366 482.942 721.965 485.473 721.061 488.367V529.867H702.887V430.863H721.061V471.956C723.683 467.436 727.254 463.909 731.775 461.378C736.296 458.846 741.223 457.58 746.558 457.58C751.169 457.58 754.921 458.394 757.814 460.022C760.708 461.559 762.968 463.683 764.595 466.396C766.223 469.018 767.353 472.002 767.986 475.347C768.619 478.602 768.935 481.992 768.935 485.519V529.867ZM887.124 449.985H856.338V529.867H837.757V449.985H806.971V433.575H887.124V449.985ZM880.777 508.846C880.777 504.234 882.043 500.211 884.575 496.775C887.197 493.249 890.813 490.537 895.424 488.638C900.036 486.739 905.325 485.79 911.292 485.79C914.276 485.79 917.305 486.016 920.379 486.468C923.453 486.92 926.12 487.643 928.381 488.638V484.84C928.381 480.32 927.024 476.839 924.312 474.398C921.69 471.956 917.757 470.736 912.513 470.736C908.625 470.736 904.918 471.414 901.392 472.77C897.866 474.126 894.159 476.115 890.271 478.737L884.439 466.803C889.141 463.729 893.933 461.423 898.815 459.886C903.788 458.349 908.987 457.58 914.412 457.58C924.538 457.58 932.404 460.112 938.01 465.175C943.706 470.238 946.554 477.472 946.554 486.875V509.524C946.554 511.422 946.87 512.779 947.503 513.592C948.227 514.406 949.357 514.903 950.894 515.084V529.867C949.266 530.138 947.775 530.364 946.418 530.545C945.153 530.726 944.068 530.816 943.163 530.816C939.547 530.816 936.789 530.003 934.89 528.375C933.082 526.748 931.952 524.759 931.5 522.408L931.093 518.746C928.019 522.724 924.176 525.798 919.565 527.968C914.954 530.138 910.252 531.223 905.46 531.223C900.759 531.223 896.509 530.274 892.712 528.375C889.005 526.386 886.066 523.719 883.896 520.374C881.817 516.938 880.777 513.095 880.777 508.846ZM924.99 512.507C925.985 511.422 926.798 510.337 927.431 509.252C928.064 508.167 928.381 507.173 928.381 506.269V499.081C926.211 498.177 923.86 497.499 921.328 497.046C918.797 496.504 916.401 496.233 914.14 496.233C909.439 496.233 905.551 497.272 902.477 499.352C899.493 501.341 898.001 504.008 898.001 507.354C898.001 509.162 898.498 510.88 899.493 512.507C900.488 514.135 901.934 515.446 903.833 516.44C905.732 517.435 907.992 517.932 910.614 517.932C913.327 517.932 915.994 517.435 918.616 516.44C921.238 515.355 923.363 514.044 924.99 512.507ZM975.2 458.801L990.118 481.043L991.203 483.484L992.56 481.043L1007.34 458.801H1026.47L1001.78 494.198L1026.87 529.867H1007.75L992.424 507.761L991.203 505.455L990.118 507.761L974.929 529.867H955.806L980.896 494.605L956.213 458.801H975.2ZM1035.59 529.867V458.801H1053.76V529.867H1035.59ZM1035.59 448.901V430.863H1053.76V448.901H1035.59ZM1096.33 531.223C1090.27 531.223 1084.48 530.229 1078.97 528.24C1073.45 526.25 1068.71 523.312 1064.73 519.424L1071.24 507.625C1075.49 511.061 1079.65 513.592 1083.72 515.22C1087.88 516.847 1091.85 517.661 1095.65 517.661C1099.18 517.661 1101.98 517.028 1104.06 515.762C1106.23 514.497 1107.31 512.598 1107.31 510.066C1107.31 508.348 1106.73 507.037 1105.55 506.133C1104.38 505.139 1102.66 504.28 1100.4 503.556C1098.23 502.833 1095.56 502.019 1092.4 501.115C1087.15 499.397 1082.77 497.725 1079.24 496.097C1075.71 494.47 1073.05 492.435 1071.24 489.994C1069.52 487.462 1068.66 484.253 1068.66 480.365C1068.66 475.663 1069.84 471.64 1072.19 468.295C1074.63 464.859 1077.97 462.192 1082.22 460.293C1086.56 458.394 1091.63 457.445 1097.41 457.445C1102.48 457.445 1107.27 458.258 1111.79 459.886C1116.31 461.423 1120.42 463.955 1124.13 467.481L1116.81 479.009C1113.19 476.206 1109.76 474.171 1106.5 472.906C1103.25 471.549 1099.95 470.871 1096.6 470.871C1094.7 470.871 1092.89 471.097 1091.18 471.549C1089.55 472.002 1088.19 472.77 1087.11 473.855C1086.11 474.85 1085.61 476.296 1085.61 478.195C1085.61 479.913 1086.07 481.269 1086.97 482.264C1087.97 483.168 1089.41 483.981 1091.31 484.705C1093.3 485.428 1095.7 486.242 1098.5 487.146C1104.19 488.773 1108.99 490.446 1112.87 492.164C1116.85 493.882 1119.84 496.007 1121.83 498.538C1123.81 500.98 1124.81 504.37 1124.81 508.71C1124.81 515.762 1122.23 521.278 1117.08 525.256C1111.93 529.234 1105.01 531.223 1096.33 531.223Z" fill="white"/>
</svg>
