<svg xmlns:xlink="http://www.w3.org/1999/xlink" xmlns="http://www.w3.org/2000/svg" width="301" height="205" viewBox="0 0 301 205" fill="none">
<path d="M215.95 80.6601C220.01 58.4201 226.73 42.45 232.09 32.56C234.19 28.69 229.91 24.39 226.09 26.61C181.21 52.76 161.54 90.91 159.09 121.5C156.98 147.88 174.98 175.06 202.26 180C208.916 181.195 215.745 181.032 222.336 179.522C228.928 178.011 235.146 175.184 240.617 171.209C246.089 167.235 250.7 162.196 254.175 156.395C257.65 150.593 259.916 144.15 260.838 137.45C261.76 130.751 261.318 123.935 259.54 117.41C257.761 110.886 254.682 104.789 250.487 99.4843C246.293 94.18 241.069 89.7782 235.131 86.5434C229.192 83.3085 222.661 81.3074 215.93 80.6601H215.95Z" fill="#365140"/>
<path d="M104.01 80.6601C108.07 58.4201 114.79 42.45 120.15 32.56C122.24 28.69 117.97 24.39 114.15 26.61C69.2701 52.76 49.5901 90.91 47.1501 121.5C45.0401 147.88 63.0401 175.06 90.3201 180C96.9761 181.195 103.805 181.032 110.396 179.522C116.988 178.011 123.206 175.184 128.677 171.209C134.149 167.235 138.76 162.196 142.235 156.395C145.71 150.593 147.977 144.15 148.898 137.45C149.82 130.751 149.379 123.935 147.6 117.41C145.821 110.886 142.742 104.789 138.547 99.4843C134.353 94.18 129.129 89.7782 123.191 86.5434C117.253 83.3085 110.721 81.3074 103.99 80.6601H104.01Z" fill="#365140"/>
</svg>