<svg xmlns:xlink="http://www.w3.org/1999/xlink" xmlns="http://www.w3.org/2000/svg" width="468" height="727" viewBox="0 0 468 727" fill="none">
<g clip-path="url(#clip0_121_1748)">
<path d="M-334 705.951C-321.352 708.954 466.87 845.741 403.2 518.686C339.531 191.632 -2.57055 636.848 222.208 586.201C406.556 544.664 -100.685 121.542 48.5194 1.76966C167.883 -94.0479 387.007 -137.469 481.649 -147.203" stroke="#F0E6D6" stroke-width="2" stroke-dasharray="11 11"/>
<path d="M375.3 417.342C374.333 417.342 373.406 416.958 372.722 416.275C372.038 415.591 371.654 414.664 371.654 413.697C371.654 412.73 372.038 411.802 372.722 411.119C373.406 410.435 374.333 410.051 375.3 410.051C376.267 410.051 377.194 410.435 377.878 411.119C378.562 411.802 378.946 412.73 378.946 413.697C378.946 414.175 378.852 414.649 378.668 415.092C378.485 415.534 378.217 415.936 377.878 416.275C377.54 416.613 377.138 416.882 376.695 417.065C376.253 417.248 375.779 417.342 375.3 417.342ZM375.3 403.488C372.593 403.488 369.996 404.564 368.082 406.478C366.167 408.393 365.092 410.989 365.092 413.697C365.092 421.353 375.3 432.655 375.3 432.655C375.3 432.655 385.508 421.353 385.508 413.697C385.508 410.989 384.433 408.393 382.519 406.478C380.604 404.564 378.008 403.488 375.3 403.488Z" fill="#CF6D59"/>
<path d="M67.0002 154.917C65.5636 154.917 64.1858 154.346 63.17 153.33C62.1542 152.314 61.5835 150.937 61.5835 149.5C61.5835 148.063 62.1542 146.686 63.17 145.67C64.1858 144.654 65.5636 144.083 67.0002 144.083C68.4368 144.083 69.8145 144.654 70.8303 145.67C71.8461 146.686 72.4168 148.063 72.4168 149.5C72.4168 150.211 72.2767 150.916 72.0045 151.573C71.7323 152.23 71.3333 152.827 70.8303 153.33C70.3273 153.833 69.7302 154.232 69.073 154.504C68.4159 154.777 67.7115 154.917 67.0002 154.917ZM67.0002 134.333C62.9777 134.333 59.12 135.931 56.2757 138.776C53.4314 141.62 51.8335 145.478 51.8335 149.5C51.8335 160.875 67.0002 177.667 67.0002 177.667C67.0002 177.667 82.1668 160.875 82.1668 149.5C82.1668 145.478 80.5689 141.62 77.7246 138.776C74.8803 135.931 71.0226 134.333 67.0002 134.333Z" fill="#CF6D59"/>
</g>
<defs>
<clipPath id="clip0_121_1748">
<rect width="468" height="727" fill="white"/>
</clipPath>
</defs>
</svg>