<svg xmlns:xlink="http://www.w3.org/1999/xlink" xmlns="http://www.w3.org/2000/svg" width="976" height="1142" viewBox="0 0 976 1142" fill="none">
<g clip-path="url(#clip0_121_1748)">
<path d="M-334 1120.95C-321.352 1123.95 466.869 1260.74 403.2 933.686C339.531 606.632 -2.57071 1051.85 222.208 1001.2C406.556 959.664 -100.685 536.542 48.5192 416.77C327.295 192.985 835.24 185.333 1187.5 120" stroke="#F0E6D6" stroke-width="2" stroke-dasharray="11 11"/>
<path d="M375.3 832.342C374.333 832.342 373.406 831.958 372.722 831.274C372.038 830.591 371.654 829.663 371.654 828.696C371.654 827.73 372.038 826.802 372.722 826.118C373.406 825.435 374.333 825.051 375.3 825.051C376.267 825.051 377.194 825.435 377.878 826.118C378.562 826.802 378.946 827.73 378.946 828.696C378.946 829.175 378.852 829.649 378.668 830.092C378.485 830.534 378.217 830.936 377.878 831.274C377.54 831.613 377.138 831.882 376.695 832.065C376.253 832.248 375.779 832.342 375.3 832.342ZM375.3 818.488C372.593 818.488 369.996 819.564 368.082 821.478C366.167 823.393 365.092 825.989 365.092 828.696C365.092 836.353 375.3 847.655 375.3 847.655C375.3 847.655 385.508 836.353 385.508 828.696C385.508 825.989 384.433 823.393 382.519 821.478C380.604 819.564 378.008 818.488 375.3 818.488Z" fill="#CF6D59"/>
<path d="M67.0002 569.917C65.5636 569.917 64.1858 569.346 63.17 568.33C62.1542 567.314 61.5835 565.936 61.5835 564.5C61.5835 563.063 62.1542 561.686 63.17 560.67C64.1858 559.654 65.5636 559.083 67.0002 559.083C68.4368 559.083 69.8145 559.654 70.8303 560.67C71.8461 561.686 72.4168 563.063 72.4168 564.5C72.4168 565.211 72.2767 565.916 72.0045 566.573C71.7323 567.23 71.3333 567.827 70.8303 568.33C70.3273 568.833 69.7302 569.232 69.073 569.504C68.4159 569.776 67.7115 569.917 67.0002 569.917ZM67.0002 549.333C62.9777 549.333 59.12 550.931 56.2757 553.775C53.4314 556.62 51.8335 560.477 51.8335 564.5C51.8335 575.875 67.0002 592.667 67.0002 592.667C67.0002 592.667 82.1668 575.875 82.1668 564.5C82.1668 560.477 80.5689 556.62 77.7246 553.775C74.8803 550.931 71.0226 549.333 67.0002 549.333Z" fill="#CF6D59"/>
</g>
<defs>
<clipPath id="clip0_121_1748">
<rect width="976" height="1142" fill="white"/>
</clipPath>
</defs>
</svg>