<svg width="143" height="142" viewBox="0 0 143 142" fill="none" xmlns="http://www.w3.org/2000/svg">
<path fill-rule="evenodd" clip-rule="evenodd" d="M71.5 137.562C105.811 137.562 133.625 109.748 133.625 75.4375C133.625 41.1268 105.811 13.3125 71.5 13.3125C37.1893 13.3125 9.375 41.1268 9.375 75.4375C9.375 86.5796 12.3082 97.0366 17.4445 106.078L9.375 137.562L41.8347 130.036C50.65 134.835 60.7564 137.562 71.5 137.562ZM71.5 128.005C100.532 128.005 124.068 104.47 124.068 75.4375C124.068 46.4056 100.532 22.8702 71.5 22.8702C42.4679 22.8702 18.9327 46.4056 18.9327 75.4375C18.9327 86.6471 22.4412 97.037 28.42 105.569L23.7115 123.226L41.6797 118.734C50.153 124.581 60.4267 128.005 71.5 128.005Z" fill="#BFC8D0"/>
<path d="M124.75 71C124.75 100.409 100.909 124.25 71.5 124.25C60.2829 124.25 49.8756 120.782 41.2924 114.859L23.0909 119.409L27.8606 101.523C21.8041 92.88 18.25 82.3551 18.25 71C18.25 41.5908 42.0908 17.75 71.5 17.75C100.909 17.75 124.75 41.5908 124.75 71Z" fill="url(#paint0_linear_33_2)"/>
<path fill-rule="evenodd" clip-rule="evenodd" d="M71.5 133.125C105.811 133.125 133.625 105.311 133.625 71C133.625 36.6893 105.811 8.875 71.5 8.875C37.1893 8.875 9.375 36.6893 9.375 71C9.375 82.1421 12.3082 92.5991 17.4445 101.641L9.375 133.125L41.8347 125.598C50.65 130.398 60.7564 133.125 71.5 133.125ZM71.5 123.568C100.532 123.568 124.068 100.032 124.068 71C124.068 41.9679 100.532 18.4327 71.5 18.4327C42.4679 18.4327 18.9327 41.9679 18.9327 71C18.9327 82.2096 22.4412 92.5995 28.42 101.132L23.7115 118.788L41.6797 114.296C50.153 120.144 60.4267 123.568 71.5 123.568Z" fill="white"/>
<path d="M55.9688 42.1558C54.4919 39.189 52.2257 39.4516 49.9369 39.4516C45.8459 39.4516 39.4668 44.3519 39.4668 53.4719C39.4668 60.946 42.7603 69.1274 53.8583 81.3665C64.5686 93.1782 78.6417 99.2882 90.3248 99.0801C102.008 98.8724 104.412 88.8184 104.412 85.4232C104.412 83.9185 103.478 83.1677 102.835 82.9635C98.8532 81.0527 91.51 77.4925 89.8393 76.8238C88.1686 76.1551 87.2962 77.0599 86.7539 77.552C85.2389 78.9955 82.2356 83.2511 81.207 84.2082C80.1789 85.1654 78.6457 84.6808 78.0076 84.3192C75.6597 83.3771 69.2941 80.5455 64.2203 75.6266C57.9448 69.5436 57.5765 67.4505 56.3943 65.5876C55.4487 64.0971 56.1427 63.1829 56.4888 62.7831C57.8409 61.2233 59.7078 58.8147 60.5451 57.6179C61.3821 56.4206 60.7178 54.6035 60.3188 53.4719C58.6037 48.604 57.1505 44.529 55.9688 42.1558Z" fill="white"/>
<defs>
<linearGradient id="paint0_linear_33_2" x1="118.094" y1="31.0625" x2="18.25" y2="124.25" gradientUnits="userSpaceOnUse">
<stop stop-color="#D3553D"/>
<stop offset="1" stop-color="#D3553D"/>
</linearGradient>
</defs>
</svg>
